<?xml version="1.0" encoding="UTF-8" standalone="no"?>
<!-- Generator: Adobe Illustrator 19.0.0, SVG Export Plug-In . SVG Version: 6.00 Build 0)  -->

<svg
   xmlns:dc="http://purl.org/dc/elements/1.1/"
   xmlns:cc="http://creativecommons.org/ns#"
   xmlns:rdf="http://www.w3.org/1999/02/22-rdf-syntax-ns#"
   xmlns:svg="http://www.w3.org/2000/svg"
   xmlns="http://www.w3.org/2000/svg"
   xmlns:sodipodi="http://sodipodi.sourceforge.net/DTD/sodipodi-0.dtd"
   xmlns:inkscape="http://www.inkscape.org/namespaces/inkscape"
   version="1.1"
   id="Layer_1"
   x="0px"
   y="0px"
   viewBox="0 0 508 508"
   style="enable-background:new 0 0 508 508;"
   xml:space="preserve"
   inkscape:version="0.48.5 r10040"
   width="100%"
   height="100%"
   sodipodi:docname="substation-grey.svg"><metadata
     id="metadata3267"><rdf:RDF><cc:Work
         rdf:about=""><dc:format>image/svg+xml</dc:format><dc:type
           rdf:resource="http://purl.org/dc/dcmitype/StillImage" /><dc:title></dc:title></cc:Work></rdf:RDF></metadata><defs
     id="defs3265" /><sodipodi:namedview
     pagecolor="#ffffff"
     bordercolor="#666666"
     borderopacity="1"
     objecttolerance="10"
     gridtolerance="10"
     guidetolerance="10"
     inkscape:pageopacity="0"
     inkscape:pageshadow="2"
     inkscape:window-width="721"
     inkscape:window-height="480"
     id="namedview3263"
     showgrid="false"
     inkscape:zoom="0.46456693"
     inkscape:cx="254"
     inkscape:cy="254"
     inkscape:window-x="200"
     inkscape:window-y="67"
     inkscape:window-maximized="0"
     inkscape:current-layer="Layer_1" /><circle
     style="fill:#e68dff;fill-opacity:1"
     cx="254"
     cy="254"
     r="254"
     id="circle3155" /><rect
     x="136"
     y="212.8"
     style="fill:#2B3B4E;"
     width="236"
     height="173.2"
     id="rect3157" /><g
     id="g3159"><path
       style="fill:#324A5E;"
       d="M371.6,212.8H136.4c-8.8,0-16-7.2-16-16l0,0c0-8.8,7.2-16,16-16H372c8.8,0,16,7.2,16,16l0,0   C388,205.6,380.8,212.8,371.6,212.8z"
       id="path3161" /><path
       style="fill:#324A5E;"
       d="M371.6,418H136.4c-8.8,0-16-7.2-16-16l0,0c0-8.8,7.2-16,16-16H372c8.8,0,16,7.2,16,16l0,0   C388,410.8,380.8,418,371.6,418z"
       id="path3163" /></g><g
     id="g3165"><rect
       x="324"
       y="126.4"
       style="fill:#2B3B4E;"
       width="21.2"
       height="10"
       id="rect3167" /><rect
       x="324"
       y="148.4"
       style="fill:#2B3B4E;"
       width="21.2"
       height="10"
       id="rect3169" /><rect
       x="324"
       y="170.8"
       style="fill:#2B3B4E;"
       width="21.2"
       height="10"
       id="rect3171" /><rect
       x="324"
       y="104"
       style="fill:#2B3B4E;"
       width="21.2"
       height="10"
       id="rect3173" /><path
       style="fill:#2B3B4E;"
       d="M345.2,91.6H324v-1.2c0-6,10.4-18,10.4-18s10.4,12,10.4,18v1.2H345.2z"
       id="path3175" /></g><g
     id="g3177"><path
       style="fill:#324A5E;"
       d="M312.8,142.4c0-3.2,2.8-6,6-6H350c3.2,0,6,2.8,6,6s-2.8,6-6,6h-30.8   C315.6,148.4,312.8,145.6,312.8,142.4z"
       id="path3179" /><path
       style="fill:#324A5E;"
       d="M312.8,164.4c0-3.2,2.8-6,6-6H350c3.2,0,6,2.8,6,6s-2.8,6-6,6h-30.8   C315.6,170.8,312.8,168,312.8,164.4z"
       id="path3181" /><path
       style="fill:#324A5E;"
       d="M312.8,120c0-3.2,2.8-6,6-6H350c3.2,0,6,2.8,6,6s-2.8,6-6,6h-30.8   C315.6,126.4,312.8,123.6,312.8,120z"
       id="path3183" /><path
       style="fill:#324A5E;"
       d="M312.8,98c0-3.2,2.8-6,6-6H350c3.2,0,6,2.8,6,6s-2.8,6-6,6h-30.8C315.6,104,312.8,101.2,312.8,98z"
       id="path3185" /></g><g
     id="g3187"><rect
       x="243.6"
       y="126.4"
       style="fill:#2B3B4E;"
       width="21.2"
       height="10"
       id="rect3189" /><rect
       x="243.6"
       y="148.4"
       style="fill:#2B3B4E;"
       width="21.2"
       height="10"
       id="rect3191" /><rect
       x="243.6"
       y="170.8"
       style="fill:#2B3B4E;"
       width="21.2"
       height="10"
       id="rect3193" /><rect
       x="243.6"
       y="104"
       style="fill:#2B3B4E;"
       width="21.2"
       height="10"
       id="rect3195" /><path
       style="fill:#2B3B4E;"
       d="M264.4,91.6h-21.2v-1.2c0-6,10.4-18,10.4-18s10.4,12,10.4,18v1.2H264.4z"
       id="path3197" /></g><g
     id="g3199"><path
       style="fill:#324A5E;"
       d="M232.4,142.4c0-3.2,2.8-6,6-6h30.8c3.2,0,6,2.8,6,6s-2.8,6-6,6h-30.8   C235.2,148.4,232.4,145.6,232.4,142.4z"
       id="path3201" /><path
       style="fill:#324A5E;"
       d="M232.4,164.4c0-3.2,2.8-6,6-6h30.8c3.2,0,6,2.8,6,6s-2.8,6-6,6h-30.8   C235.2,170.8,232.4,168,232.4,164.4z"
       id="path3203" /><path
       style="fill:#324A5E;"
       d="M232.4,120c0-3.2,2.8-6,6-6h30.8c3.2,0,6,2.8,6,6s-2.8,6-6,6h-30.8   C235.2,126.4,232.4,123.6,232.4,120z"
       id="path3205" /><path
       style="fill:#324A5E;"
       d="M232.4,98c0-3.2,2.8-6,6-6h30.8c3.2,0,6,2.8,6,6s-2.8,6-6,6h-30.8C235.2,104,232.4,101.2,232.4,98z"
       id="path3207" /></g><g
     id="g3209"><rect
       x="162.8"
       y="126.4"
       style="fill:#2B3B4E;"
       width="21.2"
       height="10"
       id="rect3211" /><rect
       x="162.8"
       y="148.4"
       style="fill:#2B3B4E;"
       width="21.2"
       height="10"
       id="rect3213" /><rect
       x="162.8"
       y="170.8"
       style="fill:#2B3B4E;"
       width="21.2"
       height="10"
       id="rect3215" /><rect
       x="162.8"
       y="104"
       style="fill:#2B3B4E;"
       width="21.2"
       height="10"
       id="rect3217" /><path
       style="fill:#2B3B4E;"
       d="M184,91.6h-21.2v-1.2c0-6,10.4-18,10.4-18s10.4,12,10.4,18v1.2H184z"
       id="path3219" /></g><g
     id="g3221"><path
       style="fill:#324A5E;"
       d="M152,142.4c0-3.2,2.8-6,6-6h30.8c3.2,0,6,2.8,6,6s-2.8,6-6,6H158C154.8,148.4,152,145.6,152,142.4z"
       id="path3223" /><path
       style="fill:#324A5E;"
       d="M152,164.4c0-3.2,2.8-6,6-6h30.8c3.2,0,6,2.8,6,6s-2.8,6-6,6H158C154.8,170.8,152,168,152,164.4z"
       id="path3225" /><path
       style="fill:#324A5E;"
       d="M152,120c0-3.2,2.8-6,6-6h30.8c3.2,0,6,2.8,6,6s-2.8,6-6,6H158C154.8,126.4,152,123.6,152,120z"
       id="path3227" /><path
       style="fill:#324A5E;"
       d="M152,98c0-3.2,2.8-6,6-6h30.8c3.2,0,6,2.8,6,6s-2.8,6-6,6H158C154.8,104,152,101.2,152,98z"
       id="path3229" /></g><polygon
     style="fill:#FFFFFF;"
     points="291.6,293.6 258.8,293.6 268.8,231.6 209.6,304.8 242.4,304.8 232.4,366.8 "
     id="polygon3231" /><g
     id="g3233" /><g
     id="g3235" /><g
     id="g3237" /><g
     id="g3239" /><g
     id="g3241" /><g
     id="g3243" /><g
     id="g3245" /><g
     id="g3247" /><g
     id="g3249" /><g
     id="g3251" /><g
     id="g3253" /><g
     id="g3255" /><g
     id="g3257" /><g
     id="g3259" /><g
     id="g3261" /></svg>