<svg version="1.1" id="Capa_1" xmlns="http://www.w3.org/2000/svg" xmlns:xlink="http://www.w3.org/1999/xlink" x="0px" y="0px" width="50px" height="50px" viewBox="0 0 32 32" style="enable-background:new 0 0 478.2 478.2;" xml:space="preserve">
<g>
	<g>
		<path d="M47.85,0c-5.7,0-9.6,3.8-9.6,9.6v459c0,5.7,3.8,9.601,9.6,9.601c5.8,0,9.6-3.8,9.6-9.601V9.6C57.45,3.8,53.55,0,47.85,0z"
			/>
		<path d="M76.55,0v191.2l363.4-38.2V38.3L76.55,0z M172.15,162.6l-76.5,7.6V21l76.5,7.7V162.6z M306.05,147.3l-76.5,7.6V34.4
			l76.5,7.7V147.3z M420.75,135.8l-57.4,5.7V49.7l57.4,5.7V135.8z"/>
	</g>
</g>
<g>
</g>
<g>
</g>
<g>
</g>
<g>
</g>
<g>
</g>
<g>
</g>
<g>
</g>
<g>
</g>
<g>
</g>
<g>
</g>
<g>
</g>
<g>
</g>
<g>
</g>
<g>
</g>
<g>
</g>
</svg>
