<?xml version="1.0" encoding="UTF-8" standalone="no"?>
<svg
   xmlns:dc="http://purl.org/dc/elements/1.1/"
   xmlns:cc="http://creativecommons.org/ns#"
   xmlns:rdf="http://www.w3.org/1999/02/22-rdf-syntax-ns#"
   xmlns:svg="http://www.w3.org/2000/svg"
   xmlns="http://www.w3.org/2000/svg"
   xmlns:sodipodi="http://sodipodi.sourceforge.net/DTD/sodipodi-0.dtd"
   xmlns:inkscape="http://www.inkscape.org/namespaces/inkscape"
   version="1.1"
   viewBox="0 0 806 441.99999"
   stroke-miterlimit="10"
   id="svg2"
   inkscape:version="0.91 r13725"
   sodipodi:docname="Vader_Outline.svg"
   width="806"
   height="442"
   style="fill:none;stroke:none;stroke-linecap:square;stroke-miterlimit:10">
  <metadata
     id="metadata89">
    <rdf:RDF>
      <cc:Work
         rdf:about="">
        <dc:format>image/svg+xml</dc:format>
        <dc:type
           rdf:resource="http://purl.org/dc/dcmitype/StillImage" />
        <dc:title></dc:title>
      </cc:Work>
    </rdf:RDF>
  </metadata>
  <defs
     id="defs87" />
  <sodipodi:namedview
     pagecolor="#ffffff"
     bordercolor="#666666"
     borderopacity="1"
     objecttolerance="10"
     gridtolerance="10"
     guidetolerance="10"
     inkscape:pageopacity="0"
     inkscape:pageshadow="2"
     inkscape:window-width="1809"
     inkscape:window-height="1388"
     id="namedview85"
     showgrid="false"
     inkscape:zoom="0.93125"
     inkscape:cx="613.72846"
     inkscape:cy="41.421378"
     inkscape:window-x="61"
     inkscape:window-y="24"
     inkscape:window-maximized="0"
     inkscape:current-layer="g7"
     fit-margin-top="0"
     fit-margin-left="0"
     fit-margin-right="0"
     fit-margin-bottom="0" />
  <g
     clip-path="none"
     id="g7"
     transform="matrix(1.0033557,0,0,0.99552573,-19.368688,-257.65386)">
    <path
       d="m 0,0 1280,0 0,960 -1280,0 z"
       id="path9"
       inkscape:connector-curvature="0"
       style="fill:#000000;fill-opacity:0;fill-rule:nonzero" />
    <path
       d="m 260.32313,430.32051 0,0 c 0,-12.71487 9.4412,-23.02228 21.08749,-23.02228 l 102.54962,0 c 5.59275,0 10.95642,2.42556 14.91111,6.74307 3.95465,4.3175 6.17638,10.17332 6.17638,16.27921 l 0,92.08633 c 0,12.71484 -9.4412,23.02226 -21.08749,23.02226 l -102.54962,0 c -11.64629,0 -21.08749,-10.30742 -21.08749,-23.02226 z"
       id="path11"
       inkscape:connector-curvature="0"
       style="fill:#666666;fill-rule:nonzero" />
    <path
       d="m 260.32313,430.32051 0,0 c 0,-12.71487 9.4412,-23.02228 21.08749,-23.02228 l 102.54962,0 c 5.59275,0 10.95642,2.42556 14.91111,6.74307 3.95465,4.3175 6.17638,10.17332 6.17638,16.27921 l 0,92.08633 c 0,12.71484 -9.4412,23.02226 -21.08749,23.02226 l -102.54962,0 c -11.64629,0 -21.08749,-10.30742 -21.08749,-23.02226 z"
       id="path13"
       inkscape:connector-curvature="0"
       style="fill-rule:nonzero;stroke:#000000;stroke-width:1.0575279;stroke-linecap:butt;stroke-linejoin:round" />
    <path
       d="m 292.71022,484.01011 0,-15.02079 4.74429,0 q 1.59725,0 2.45123,0.20717 1.17026,0.29352 2.00841,1.07045 1.09119,1.01865 1.62888,2.5898 0.53768,1.55388 0.53768,3.55664 0,1.70927 -0.36374,3.03869 -0.36372,1.31216 -0.93303,2.19269 -0.56932,0.86326 -1.24933,1.36396 -0.68003,0.48343 -1.6447,0.74241 -0.96466,0.25898 -2.214,0.25898 l -4.96569,0 z m 1.81865,-1.77833 2.94145,0 q 1.36003,0 2.13493,-0.27625 0.77491,-0.27624 1.23352,-0.77693 0.64839,-0.70788 1.01212,-1.89917 0.36373,-1.19132 0.36373,-2.90058 0,-2.34807 -0.71165,-3.60844 -0.71164,-1.27763 -1.72375,-1.70927 -0.72746,-0.31076 -2.35634,-0.31076 l -2.89401,0 0,11.4814 z m 18.11164,0.43162 q -0.94887,0.88054 -1.81864,1.24311 -0.86979,0.34531 -1.8661,0.34531 -1.62888,0 -2.51446,-0.86326 -0.88561,-0.88054 -0.88561,-2.24449 0,-0.81148 0.3321,-1.46755 0.3321,-0.6561 0.86979,-1.05318 0.53768,-0.39711 1.2177,-0.60429 0.50607,-0.15538 1.50235,-0.27624 2.05587,-0.27625 3.02055,-0.63882 0,-0.37983 0,-0.48342 0,-1.12225 -0.47444,-1.58842 -0.64838,-0.62153 -1.92934,-0.62153 -1.18607,0 -1.75539,0.44888 -0.56932,0.44891 -0.83816,1.62295 l -1.66051,-0.25899 q 0.23723,-1.15677 0.74329,-1.86465 0.52186,-0.70786 1.48654,-1.08772 0.9805,-0.39709 2.27726,-0.39709 1.28096,0 2.07167,0.32804 0.79072,0.32804 1.17027,0.82874 0.37953,0.50069 0.52187,1.26035 0.0948,0.46617 0.0948,1.692 l 0,2.46894 q 0,2.57253 0.0948,3.26312 0.11068,0.67337 0.4428,1.29492 l -1.7712,0 q -0.26884,-0.56976 -0.33211,-1.34671 z m -0.14232,-4.10912 q -0.91722,0.39709 -2.76752,0.69061 -1.04374,0.15539 -1.47072,0.36257 -0.42699,0.20718 -0.66421,0.60428 -0.23721,0.3971 -0.23721,0.88052 0,0.74243 0.50606,1.24311 0.52188,0.48342 1.50237,0.48342 0.98048,0 1.73956,-0.46615 0.75909,-0.48343 1.12282,-1.27763 0.26885,-0.63881 0.26885,-1.84739 l 0,-0.67334 z m 7.82879,3.79836 0.23721,1.64019 q -0.71166,0.1554 -1.28097,0.1554 -0.91722,0 -1.42327,-0.31078 -0.50606,-0.32804 -0.71165,-0.82873 -0.2056,-0.51796 -0.2056,-2.1927 l 0,-6.25002 -1.24932,0 0,-1.4503 1.24932,0 0,-2.69338 1.67632,-1.10498 0,3.79836 1.70796,0 0,1.4503 -1.70796,0 0,6.35361 q 0,0.79421 0.079,1.01867 0.0948,0.22443 0.30049,0.36256 0.20557,0.13812 0.58513,0.13812 0.26882,0 0.74326,-0.0863 z m 8.06106,0.31076 q -0.94885,0.88054 -1.81864,1.24311 -0.86979,0.34531 -1.86608,0.34531 -1.62889,0 -2.51448,-0.86326 -0.88561,-0.88054 -0.88561,-2.24449 0,-0.81148 0.3321,-1.46755 0.3321,-0.6561 0.86979,-1.05318 0.53768,-0.39711 1.2177,-0.60429 0.50606,-0.15538 1.50237,-0.27624 2.05584,-0.27625 3.02053,-0.63882 0,-0.37983 0,-0.48342 0,-1.12225 -0.47443,-1.58842 -0.64839,-0.62153 -1.92935,-0.62153 -1.18607,0 -1.75539,0.44888 -0.56932,0.44891 -0.83817,1.62295 l -1.66049,-0.25899 q 0.23721,-1.15677 0.74328,-1.86465 0.52187,-0.70786 1.48655,-1.08772 0.98048,-0.39709 2.27725,-0.39709 1.28096,0 2.07168,0.32804 0.79071,0.32804 1.17026,0.82874 0.37954,0.50069 0.52187,1.26035 0.0948,0.46617 0.0948,1.692 l 0,2.46894 q 0,2.57253 0.0948,3.26312 0.11069,0.67337 0.4428,1.29492 l -1.77121,0 q -0.26883,-0.56976 -0.33211,-1.34671 z m -0.14232,-4.10912 q -0.91723,0.39709 -2.76752,0.69061 -1.04374,0.15539 -1.47072,0.36257 -0.42699,0.20718 -0.66419,0.60428 -0.23722,0.3971 -0.23722,0.88052 0,0.74243 0.50606,1.24311 0.52187,0.48342 1.50236,0.48342 0.98048,0 1.73957,-0.46615 0.75908,-0.48343 1.12281,-1.27763 0.26885,-0.63881 0.26885,-1.84739 l 0,-0.67334 z m 9.59576,5.45583 0,-15.02079 5.18709,0 q 1.37585,0 2.10331,0.13811 1.01211,0.18991 1.69212,0.70789 0.68002,0.51795 1.0912,1.45027 0.42699,0.93233 0.42699,2.0373 0,1.91644 -1.12281,3.24588 -1.10701,1.32943 -4.03266,1.32943 l -3.52659,0 0,6.11191 -1.81865,0 z m 1.81865,-7.89024 3.5582,0 q 1.77121,0 2.49868,-0.70787 0.74328,-0.72514 0.74328,-2.02004 0,-0.94959 -0.44282,-1.62294 -0.42697,-0.67335 -1.13862,-0.88052 -0.45862,-0.13812 -1.69213,-0.13812 l -3.52659,0 0,5.36949 z m 10.52266,7.89024 0,-15.02079 1.69212,0 0,15.02079 -1.69212,0 z m 10.75796,0 0,-1.60568 q -1.15445,1.84739 -3.16285,1.84739 -0.8698,0 -1.64471,-0.36258 -0.75907,-0.37983 -1.13861,-0.93233 -0.36374,-0.55248 -0.52188,-1.36395 -0.0948,-0.5525 -0.0948,-1.72652 l 0,-6.75074 1.69214,0 0,6.04286 q 0,1.45028 0.0948,1.95098 0.15814,0.72515 0.68,1.13951 0.52188,0.41435 1.28097,0.41435 0.75909,0 1.42329,-0.41435 0.6642,-0.43164 0.93304,-1.15679 0.28465,-0.74239 0.28465,-2.14089 l 0,-5.83567 1.69214,0 0,10.89441 -1.51818,0 z m 3.66967,0.89778 1.62887,0.27626 q 0.1107,0.82873 0.58513,1.20857 0.61675,0.50068 1.70794,0.50068 1.18607,0 1.81864,-0.51796 0.63258,-0.50068 0.8698,-1.41575 0.12651,-0.56975 0.11068,-2.38261 -1.10699,1.43303 -2.75167,1.43303 -2.05587,0 -3.19449,-1.62294 -1.12282,-1.62294 -1.12282,-3.88469 0,-1.55389 0.52187,-2.86604 0.52188,-1.32942 1.50237,-2.0373 0.98048,-0.72514 2.29307,-0.72514 1.77119,0 2.90983,1.55388 l 0,-1.31218 1.56563,0 0,9.40959 q 0,2.55526 -0.47445,3.60844 -0.47443,1.07044 -1.50237,1.67474 -1.02791,0.62153 -2.53029,0.62153 -1.787,0 -2.894,-0.88052 -1.09119,-0.88053 -1.04374,-2.64159 z m 1.39165,-6.54353 q 0,2.15816 0.7749,3.14227 0.79071,0.98413 1.96097,0.98413 1.15446,0 1.94517,-0.98413 0.79071,-0.98411 0.79071,-3.07322 0,-2.00277 -0.82233,-3.00415 -0.80655,-1.01864 -1.94517,-1.01864 -1.12281,0 -1.91353,1.00138 -0.79072,0.98412 -0.79072,2.95236 z"
       id="path15"
       inkscape:connector-curvature="0"
       style="fill:#ffffff;fill-rule:nonzero" />
    <path
       d="m 674.96142,573.96756 0,0 c 0,-12.71483 9.44124,-23.02226 21.08747,-23.02226 l 102.54962,0 c 5.59284,0 10.95649,2.42557 14.91121,6.74307 3.95457,4.31751 6.17633,10.17331 6.17633,16.27919 l 0,92.08636 c 0,12.71482 -9.44124,23.02226 -21.08754,23.02226 l -102.54962,0 c -11.64623,0 -21.08747,-10.30744 -21.08747,-23.02226 z"
       id="path17"
       inkscape:connector-curvature="0"
       style="fill:#666666;fill-rule:nonzero" />
    <path
       d="m 674.96142,573.96756 0,0 c 0,-12.71483 9.44124,-23.02226 21.08747,-23.02226 l 102.54962,0 c 5.59284,0 10.95649,2.42557 14.91121,6.74307 3.95457,4.31751 6.17633,10.17331 6.17633,16.27919 l 0,92.08636 c 0,12.71482 -9.44124,23.02226 -21.08754,23.02226 l -102.54962,0 c -11.64623,0 -21.08747,-10.30744 -21.08747,-23.02226 z"
       id="path19"
       inkscape:connector-curvature="0"
       style="fill-rule:nonzero;stroke:#000000;stroke-width:1.0575279;stroke-linecap:butt;stroke-linejoin:round" />
    <path
       d="m 705.82207,615.50241 0,-15.02079 6.10428,0 q 1.83445,0 2.78334,0.39711 0.96454,0.3971 1.53395,1.43301 0.56926,1.01865 0.56926,2.26175 0,1.60566 -0.94881,2.71065 -0.93303,1.08771 -2.92566,1.38123 0.72752,0.37984 1.107,0.7424 0.79078,0.81146 1.50228,2.00277 l 2.40386,4.09187 -2.29306,0 -1.81865,-3.12501 q -0.80658,-1.3467 -1.32845,-2.07184 -0.506,-0.72514 -0.91723,-1.00138 -0.41115,-0.29351 -0.8223,-0.3971 -0.31629,-0.0863 -1.02794,-0.0863 l -2.10329,0 0,6.68167 -1.81858,0 z m 1.81858,-8.39092 3.90614,0 q 1.24932,0 1.94518,-0.27624 0.71157,-0.29352 1.07541,-0.91507 0.37948,-0.62155 0.37948,-1.34669 0,-1.07045 -0.71172,-1.74379 -0.71151,-0.69062 -2.24553,-0.69062 l -4.34896,0 0,4.97241 z m 18.39637,4.88606 1.73952,0.24172 q -0.41115,1.65745 -1.53402,2.58979 -1.10693,0.91505 -2.84653,0.91505 -2.18242,0 -3.46333,-1.46753 -1.28091,-1.46755 -1.28091,-4.12641 0,-2.74518 1.28091,-4.26451 1.29671,-1.51937 3.3684,-1.51937 2.00844,0 3.27363,1.48483 1.26511,1.48482 1.26511,4.19546 0,0.15538 -0.0156,0.48344 l -7.43273,0 q 0.0949,1.79558 0.93303,2.74517 0.83817,0.94959 2.08756,0.94959 0.91715,0 1.56554,-0.51796 0.66419,-0.53522 1.05962,-1.70927 z m -5.55089,-2.98688 5.56668,0 q -0.11072,-1.36396 -0.63267,-2.05457 -0.8065,-1.07044 -2.10328,-1.07044 -1.15439,0 -1.96097,0.86326 -0.79071,0.846 -0.86976,2.26175 z m 15.73604,5.14506 q -0.9489,0.88052 -1.81866,1.24309 -0.86991,0.34529 -1.86612,0.34529 -1.62895,0 -2.51443,-0.86325 -0.88571,-0.88054 -0.88571,-2.24448 0,-0.81149 0.33217,-1.46755 0.3321,-0.65609 0.86976,-1.0532 0.53767,-0.39709 1.21773,-0.60427 0.506,-0.15538 1.50236,-0.27625 2.05582,-0.27625 3.02051,-0.63881 0,-0.37984 0,-0.48344 0,-1.12223 -0.47441,-1.58839 -0.64839,-0.62155 -1.92938,-0.62155 -1.18606,0 -1.75539,0.44889 -0.56926,0.44891 -0.8381,1.62294 l -1.66054,-0.25898 q 0.23724,-1.15677 0.74332,-1.86465 0.52179,-0.70788 1.48648,-1.08772 0.98049,-0.39711 2.27727,-0.39711 1.28091,0 2.07162,0.32806 0.79078,0.32804 1.17033,0.82873 0.37956,0.50069 0.52188,1.26036 0.0948,0.46617 0.0948,1.692 l 0,2.46894 q 0,2.57252 0.0949,3.26313 0.11065,0.67335 0.44274,1.2949 l -1.77119,0 q -0.26883,-0.56975 -0.33209,-1.34668 z m -0.14239,-4.10915 q -0.91723,0.39711 -2.76755,0.69062 -1.04374,0.15538 -1.47069,0.36256 -0.42695,0.20718 -0.66419,0.60429 -0.23724,0.39709 -0.23724,0.88053 0,0.74241 0.50608,1.24309 0.52187,0.48343 1.50235,0.48343 0.98049,0 1.7396,-0.46616 0.75912,-0.48342 1.1228,-1.27762 0.26884,-0.63884 0.26884,-1.8474 l 0,-0.67334 z m 4.09659,5.45583 0,-15.02079 1.69213,0 0,15.02079 -1.69213,0 z m 13.18922,0 0,-13.25974 -4.52297,0 0,-1.76105 10.89609,0 0,1.76105 -4.55454,0 0,13.25974 -1.81858,0 z m 7.83345,-12.91442 0,-2.10637 1.69214,0 0,2.10637 -1.69214,0 z m 0,12.91442 0,-10.89438 1.69214,0 0,10.89438 -1.69214,0 z m 4.17922,0 0,-10.89438 1.51823,0 0,1.5366 q 0.45861,-0.7942 1.23352,-1.27762 0.79071,-0.50072 1.78699,-0.50072 1.10701,0 1.81858,0.50072 0.71173,0.50069 0.99636,1.41574 1.18606,-1.91646 3.08384,-1.91646 1.48656,0 2.27719,0.89781 0.80658,0.89779 0.80658,2.76243 l 0,7.47588 -1.69213,0 0,-6.85432 q 0,-1.10497 -0.15826,-1.58841 -0.15804,-0.50068 -0.60086,-0.7942 -0.42694,-0.2935 -1.01215,-0.2935 -1.04374,0 -1.73952,0.75967 -0.69586,0.75968 -0.69586,2.45167 l 0,6.31909 -1.69206,0 0,-7.07875 q 0,-1.22585 -0.41122,-1.83012 -0.41123,-0.62156 -1.36004,-0.62156 -0.71166,0 -1.32838,0.41437 -0.60093,0.39709 -0.86976,1.19129 -0.26884,0.79421 -0.26884,2.27901 l 0,5.64576 -1.69221,0 z m 22.56092,-3.50486 1.73945,0.24172 q -0.41108,1.65745 -1.53395,2.58979 -1.10693,0.91505 -2.84653,0.91505 -2.18242,0 -3.46333,-1.46753 -1.28098,-1.46755 -1.28098,-4.12641 0,-2.74518 1.28098,-4.26451 1.29678,-1.51937 3.3684,-1.51937 2.00843,0 3.27362,1.48483 1.26512,1.48482 1.26512,4.19546 0,0.15538 -0.0156,0.48344 l -7.43265,0 q 0.0948,1.79558 0.93302,2.74517 0.83817,0.94959 2.08749,0.94959 0.91722,0 1.56554,-0.51796 0.66434,-0.53522 1.05969,-1.70927 z m -5.55082,-2.98688 5.56661,0 q -0.11072,-1.36396 -0.63259,-2.05457 -0.80658,-1.07044 -2.10329,-1.07044 -1.15446,0 -1.96104,0.86326 -0.79063,0.846 -0.86969,2.26175 z"
       id="path21"
       inkscape:connector-curvature="0"
       style="fill:#ffffff;fill-rule:nonzero" />
    <path
       d="m 709.51377,639.81191 5.29778,-15.02078 1.96097,0 5.62994,15.02078 -2.07176,0 -1.61301,-4.55803 -5.75646,0 -1.50236,4.55803 -1.9451,0 z m 3.9694,-6.1637 4.66519,0 -1.4233,-4.17821 q -0.66419,-1.88191 -0.98041,-3.10773 -0.26891,1.45027 -0.7434,2.86602 l -1.51808,4.41992 z m 9.92169,6.1637 0,-10.89438 1.51815,0 0,1.55388 q 1.107,-1.79559 3.17862,-1.79559 0.90143,0 1.66054,0.36257 0.75912,0.34529 1.1228,0.93232 0.37963,0.56975 0.53767,1.34669 0.0949,0.51797 0.0949,1.79559 l 0,6.69892 -1.69221,0 0,-6.62987 q 0,-1.12223 -0.20558,-1.67473 -0.18977,-0.56974 -0.69585,-0.89779 -0.50608,-0.32803 -1.18606,-0.32803 -1.07541,0 -1.86612,0.7424 -0.77483,0.74241 -0.77483,2.84877 l 0,5.93925 -1.69214,0 z m 17.01687,-1.34668 q -0.94889,0.88052 -1.81865,1.2431 -0.86969,0.34531 -1.86604,0.34531 -1.62888,0 -2.51451,-0.86328 -0.88556,-0.88053 -0.88556,-2.24449 0,-0.81146 0.33209,-1.46754 0.3321,-0.65609 0.86976,-1.05318 0.53775,-0.39711 1.21766,-0.60429 0.50615,-0.15538 1.50235,-0.27624 2.05597,-0.27625 3.02059,-0.63881 0,-0.37984 0,-0.48343 0,-1.12226 -0.47441,-1.5884 -0.64839,-0.62156 -1.9293,-0.62156 -1.18614,0 -1.75547,0.4489 -0.56926,0.4489 -0.8381,1.62294 l -1.66047,-0.25898 q 0.23717,-1.15678 0.74325,-1.86466 0.52187,-0.70787 1.48648,-1.08771 0.98049,-0.39709 2.27734,-0.39709 1.28092,0 2.07162,0.32804 0.79071,0.32802 1.17026,0.82872 0.37956,0.5007 0.52188,1.26036 0.0948,0.46618 0.0948,1.692 l 0,2.46894 q 0,2.57253 0.0948,3.26313 0.11072,0.67335 0.44281,1.2949 l -1.77119,0 q -0.26883,-0.56975 -0.33209,-1.34668 z m -0.14231,-4.10914 q -0.91723,0.3971 -2.76747,0.69061 -1.04375,0.15538 -1.47077,0.36257 -0.42702,0.20718 -0.66419,0.60429 -0.23716,0.39709 -0.23716,0.88051 0,0.74242 0.506,1.24311 0.52187,0.48343 1.50235,0.48343 0.98056,0 1.7396,-0.46616 0.75904,-0.48342 1.1228,-1.27764 0.26884,-0.63881 0.26884,-1.84739 l 0,-0.67333 z m 4.09666,5.45582 0,-15.02078 1.69214,0 0,15.02078 -1.69214,0 z m 4.14764,4.19546 -0.17399,-1.72652 q 0.55347,0.15539 0.96469,0.15539 0.55354,0 0.88559,-0.20718 0.34796,-0.20718 0.56934,-0.56976 0.15811,-0.27625 0.50607,-1.38123 0.0477,-0.15538 0.15811,-0.44889 l -3.77965,-10.91165 1.81873,0 2.07172,6.31908 q 0.41115,1.19132 0.72737,2.52073 0.28463,-1.27763 0.69586,-2.48621 l 2.11908,-6.3536 1.69213,0 -3.79542,11.08431 q -0.60092,1.79558 -0.94889,2.46892 -0.44267,0.91506 -1.02787,1.32943 -0.58513,0.43163 -1.39174,0.43163 -0.49021,0 -1.09113,-0.22445 z m 13.22081,-5.85292 0.23717,1.6402 q -0.71165,0.15539 -1.28091,0.15539 -0.91723,0 -1.4233,-0.31078 -0.50615,-0.32805 -0.71165,-0.82874 -0.20558,-0.51794 -0.20558,-2.19269 l 0,-6.25003 -1.24932,0 0,-1.45027 1.24932,0 0,-2.69339 1.67627,-1.10498 0,3.79837 1.708,0 0,1.45027 -1.708,0 0,6.35363 q 0,0.7942 0.0791,1.01865 0.0948,0.22445 0.30043,0.36257 0.20565,0.13813 0.5852,0.13813 0.26884,0 0.74332,-0.0863 z m 1.56137,-11.25696 0,-2.10636 1.69206,0 0,2.10636 -1.69206,0 z m 0,12.91442 0,-10.89438 1.69206,0 0,10.89438 -1.69206,0 z m 10.69465,-3.98828 1.66047,0.24172 q -0.26883,1.86465 -1.39156,2.93508 -1.12287,1.05321 -2.76754,1.05321 -2.04003,0 -3.28935,-1.45029 -1.23352,-1.46757 -1.23352,-4.19547 0,-1.76106 0.52187,-3.07323 0.53767,-1.32941 1.6288,-1.9855 1.10708,-0.67333 2.38799,-0.67333 1.62888,0 2.65683,0.89778 1.02794,0.89781 1.32837,2.55526 l -1.64467,0.27625 q -0.23724,-1.10499 -0.83817,-1.65747 -0.60085,-0.55248 -1.4391,-0.55248 -1.28098,0 -2.08741,1.00137 -0.79071,1.0014 -0.79071,3.15956 0,2.19269 0.77491,3.19407 0.77484,0.98413 2.00836,0.98413 0.99628,0 1.66047,-0.65608 0.66419,-0.67337 0.85396,-2.05458 z m 2.24568,0.74242 1.67626,-0.29352 q 0.14232,1.10498 0.77491,1.692 0.6484,0.56976 1.80286,0.56976 1.17027,0 1.7238,-0.51797 0.56927,-0.51795 0.56927,-1.20856 0,-0.62155 -0.49021,-0.98413 -0.34796,-0.24171 -1.7238,-0.62155 -1.86605,-0.51795 -2.59349,-0.88052 -0.71165,-0.37984 -1.09121,-1.03592 -0.36376,-0.67334 -0.36376,-1.46754 0,-0.72516 0.30043,-1.34669 0.31637,-0.62156 0.83824,-1.03594 0.39528,-0.31078 1.07534,-0.5352 0.67998,-0.22445 1.45497,-0.22445 1.18606,0 2.07161,0.37983 0.88564,0.36256 1.29679,1.00139 0.42694,0.62155 0.58513,1.67473 l -1.64467,0.24172 q -0.11073,-0.82875 -0.66427,-1.2949 -0.53759,-0.48343 -1.51815,-0.48343 -1.17019,0 -1.66039,0.43163 -0.49036,0.41437 -0.49036,0.96686 0,0.36256 0.20565,0.65608 0.20558,0.2935 0.64839,0.48342 0.25297,0.10355 1.48656,0.48342 1.78699,0.51797 2.49864,0.84601 0.71158,0.32805 1.10693,0.96684 0.41115,0.63883 0.41115,1.58841 0,0.91507 -0.49021,1.7438 -0.4902,0.81147 -1.42322,1.26037 -0.9331,0.43164 -2.10329,0.43164 -1.94517,0 -2.97312,-0.88054 -1.01215,-0.88052 -1.29678,-2.60705 z"
       id="path23"
       inkscape:connector-curvature="0"
       style="fill:#ffffff;fill-rule:nonzero" />
    <path
       d="m 666.86439,304.59668 0,0 c 0,-12.71485 9.44121,-23.02227 21.08766,-23.02227 l 102.54954,0 c 5.59277,0 10.95649,2.42555 14.91121,6.74306 3.95458,4.31752 6.17633,10.17333 6.17633,16.27921 l 0,92.08634 c 0,12.71485 -9.44123,23.02226 -21.08754,23.02226 l -102.54954,0 c -11.64645,0 -21.08766,-10.30741 -21.08766,-23.02226 z"
       id="path25"
       inkscape:connector-curvature="0"
       style="fill:#666666;fill-rule:nonzero" />
    <path
       d="m 666.86439,304.59668 0,0 c 0,-12.71485 9.44121,-23.02227 21.08766,-23.02227 l 102.54954,0 c 5.59277,0 10.95649,2.42555 14.91121,6.74306 3.95458,4.31752 6.17633,10.17333 6.17633,16.27921 l 0,92.08634 c 0,12.71485 -9.44123,23.02226 -21.08754,23.02226 l -102.54954,0 c -11.64645,0 -21.08766,-10.30741 -21.08766,-23.02226 z"
       id="path27"
       inkscape:connector-curvature="0"
       style="fill-rule:nonzero;stroke:#000000;stroke-width:1.0575279;stroke-linecap:butt;stroke-linejoin:round" />
    <path
       d="m 691.34988,338.81107 q 0,-3.74656 1.83445,-5.85291 1.85025,-2.12364 4.76011,-2.12364 1.89771,0 3.43166,1.00139 1.53402,0.98412 2.32473,2.76243 0.80658,1.77833 0.80658,4.04008 0,2.27901 -0.85404,4.09188 -0.83817,1.79559 -2.38792,2.72791 -1.54982,0.93233 -3.33681,0.93233 -1.94517,0 -3.47912,-1.01867 -1.51823,-1.03592 -2.30893,-2.79697 -0.79071,-1.77831 -0.79071,-3.76383 z m 1.88191,0.0345 q 0,2.71066 1.32838,4.28179 1.34417,1.55388 3.3526,1.55388 2.0559,0 3.38427,-1.57113 1.32845,-1.58841 1.32845,-4.48897 0,-1.83012 -0.56933,-3.19409 -0.55354,-1.36395 -1.66047,-2.12362 -1.09121,-0.75966 -2.45125,-0.75966 -1.9293,0 -3.32101,1.45027 -1.39164,1.45029 -1.39164,4.85153 z m 13.13741,11.46415 0,-15.07257 1.54982,0 0,1.41574 q 0.53767,-0.82873 1.21765,-1.2431 0.69586,-0.41437 1.66055,-0.41437 1.28098,0 2.26139,0.72515 0.98049,0.70787 1.47084,2.02003 0.506,1.31216 0.506,2.86604 0,1.67474 -0.55346,3.02143 -0.55354,1.32941 -1.59728,2.03729 -1.04375,0.70787 -2.19822,0.70787 -0.85396,0 -1.53402,-0.37983 -0.66419,-0.39709 -1.09113,-0.98411 l 0,5.30043 -1.69214,0 z m 1.53403,-9.56497 q 0,2.10637 0.77491,3.10775 0.7907,1.00139 1.89771,1.00139 1.12272,0 1.9135,-1.03591 0.80658,-1.03592 0.80658,-3.2286 0,-2.07184 -0.79078,-3.10775 -0.77491,-1.03592 -1.86604,-1.03592 -1.07542,0 -1.91359,1.10497 -0.82229,1.10499 -0.82229,3.19407 z m 15.79922,1.88193 1.73953,0.24172 q -0.41115,1.65746 -1.53395,2.58978 -1.10701,0.91505 -2.84661,0.91505 -2.18234,0 -3.46332,-1.46753 -1.28099,-1.46756 -1.28099,-4.12641 0,-2.74517 1.28099,-4.26452 1.29678,-1.51935 3.36847,-1.51935 2.00836,0 3.27347,1.48482 1.26519,1.48481 1.26519,4.19546 0,0.1554 -0.0156,0.48342 l -7.43273,0 q 0.0948,1.7956 0.93302,2.74519 0.83824,0.94958 2.08749,0.94958 0.91722,0 1.56561,-0.51796 0.66419,-0.53522 1.05955,-1.70925 z m -5.55089,-2.9869 5.56669,0 q -0.11073,-1.36395 -0.6326,-2.05456 -0.8065,-1.07045 -2.10328,-1.07045 -1.1544,0 -1.96097,0.86326 -0.79071,0.84599 -0.86984,2.26175 z m 9.20474,6.49174 0,-10.89437 1.51815,0 0,1.65746 q 0.58514,-1.15678 1.07542,-1.51935 0.49013,-0.37984 1.09113,-0.37984 0.85396,0 1.7396,0.60429 l -0.58521,1.70926 q -0.61665,-0.3971 -1.24932,-0.3971 -0.55346,0 -0.9962,0.36257 -0.4271,0.36256 -0.6168,1.00139 -0.28463,0.98411 -0.28463,2.15815 l 0,5.69754 -1.69214,0 z m 12.81918,-1.34669 q -0.94882,0.88053 -1.81866,1.2431 -0.86969,0.3453 -1.86604,0.3453 -1.62888,0 -2.51451,-0.86326 -0.88556,-0.88052 -0.88556,-2.24448 0,-0.81146 0.33202,-1.46755 0.33217,-0.65607 0.86984,-1.05319 0.53766,-0.39709 1.21772,-0.60427 0.506,-0.1554 1.50229,-0.27625 2.05597,-0.27624 3.02058,-0.63882 0,-0.37984 0,-0.48342 0,-1.12223 -0.47441,-1.5884 -0.64839,-0.62156 -1.92938,-0.62156 -1.18598,0 -1.75539,0.4489 -0.56926,0.44889 -0.8381,1.62293 l -1.66054,-0.25897 q 0.23724,-1.15678 0.74324,-1.86465 0.52188,-0.70788 1.48656,-1.08772 0.98049,-0.3971 2.27735,-0.3971 1.28091,0 2.07154,0.32804 0.79078,0.32805 1.17026,0.82873 0.37963,0.5007 0.52195,1.26038 0.0948,0.46616 0.0948,1.69199 l 0,2.46893 q 0,2.57254 0.0948,3.26314 0.1108,0.67334 0.44282,1.29489 l -1.7712,0 q -0.26883,-0.56974 -0.33209,-1.34669 z m -0.14232,-4.10913 q -0.91723,0.39711 -2.76755,0.69061 -1.04367,0.15539 -1.47069,0.36258 -0.42694,0.20718 -0.66418,0.60428 -0.23717,0.3971 -0.23717,0.88053 0,0.7424 0.50607,1.2431 0.52173,0.48342 1.50229,0.48342 0.98056,0 1.73952,-0.46617 0.75912,-0.48342 1.1228,-1.27762 0.26891,-0.63882 0.26891,-1.84738 l 0,-0.67335 z m 7.82883,3.79835 0.23724,1.64022 q -0.71165,0.15538 -1.28099,0.15538 -0.91722,0 -1.42322,-0.31078 -0.50615,-0.32803 -0.71173,-0.82873 -0.20557,-0.51796 -0.20557,-2.19269 l 0,-6.25002 -1.24932,0 0,-1.45028 1.24932,0 0,-2.69338 1.67626,-1.10499 0,3.79837 1.70801,0 0,1.45028 -1.70801,0 0,6.35361 q 0,0.79421 0.0791,1.01865 0.0949,0.22445 0.30057,0.36258 0.2055,0.13812 0.58513,0.13812 0.26884,0 0.74325,-0.0863 z m 1.56137,-11.25695 0,-2.10637 1.69209,0 0,2.10637 -1.69209,0 z m 0,12.91442 0,-10.89437 1.69209,0 0,10.89437 -1.69209,0 z m 3.54673,-5.43855 q 0,-3.02143 1.54975,-4.48897 1.28098,-1.20858 3.13123,-1.20858 2.0559,0 3.3526,1.48482 1.31258,1.46754 1.31258,4.05733 0,2.10637 -0.58506,3.31493 -0.56933,1.19132 -1.67633,1.86465 -1.09121,0.65608 -2.40379,0.65608 -2.08749,0 -3.3842,-1.46753 -1.29678,-1.46756 -1.29678,-4.21273 z m 1.73952,0 q 0,2.08909 0.83817,3.12501 0.8381,1.03591 2.10329,1.03591 1.26511,0 2.08749,-1.03591 0.83824,-1.05318 0.83824,-3.19408 0,-2.02004 -0.83824,-3.05595 -0.83817,-1.03592 -2.08749,-1.03592 -1.26519,0 -2.10329,1.03592 -0.83817,1.03591 -0.83817,3.12502 z m 9.39445,5.43855 0,-10.89437 1.51815,0 0,1.55387 q 1.10701,-1.7956 3.1787,-1.7956 0.9015,0 1.66047,0.36257 0.75911,0.34531 1.1228,0.93232 0.37963,0.56977 0.53774,1.34669 0.0948,0.51797 0.0948,1.7956 l 0,6.69892 -1.69213,0 0,-6.62986 q 0,-1.12224 -0.20565,-1.67472 -0.18978,-0.56976 -0.69578,-0.89781 -0.50608,-0.32804 -1.18606,-0.32804 -1.07541,0 -1.86612,0.74241 -0.77491,0.74241 -0.77491,2.84877 l 0,5.93925 -1.69214,0 z m 17.01695,-1.34669 q -0.94889,0.88053 -1.81865,1.2431 -0.86977,0.3453 -1.86612,0.3453 -1.6288,0 -2.51444,-0.86326 -0.88563,-0.88052 -0.88563,-2.24448 0,-0.81146 0.33209,-1.46755 0.33217,-0.65607 0.86984,-1.05319 0.53767,-0.39709 1.21773,-0.60427 0.506,-0.1554 1.50228,-0.27625 2.0559,-0.27624 3.02066,-0.63882 0,-0.37984 0,-0.48342 0,-1.12223 -0.47456,-1.5884 -0.64832,-0.62156 -1.92923,-0.62156 -1.18613,0 -1.75547,0.4489 -0.56933,0.44889 -0.83817,1.62293 l -1.66046,-0.25897 q 0.23724,-1.15678 0.74324,-1.86465 0.52187,-0.70788 1.48656,-1.08772 0.98056,-0.3971 2.27727,-0.3971 1.28098,0 2.07161,0.32804 0.79071,0.32805 1.17027,0.82873 0.37955,0.5007 0.52187,1.26038 0.0949,0.46616 0.0949,1.69199 l 0,2.46893 q 0,2.57254 0.0948,3.26314 0.11057,0.67334 0.44274,1.29489 l -1.77127,0 q -0.26883,-0.56974 -0.33201,-1.34669 z m -0.14224,-4.10913 q -0.9173,0.39711 -2.76762,0.69061 -1.04367,0.15539 -1.47069,0.36258 -0.42695,0.20718 -0.66426,0.60428 -0.23717,0.3971 -0.23717,0.88053 0,0.7424 0.506,1.2431 0.52195,0.48342 1.50243,0.48342 0.98049,0 1.73953,-0.46617 0.75911,-0.48342 1.12287,-1.27762 0.26891,-0.63882 0.26891,-1.84738 l 0,-0.67335 z m 4.09652,5.45582 0,-15.02079 1.69213,0 0,15.02079 -1.69213,0 z"
       id="path29"
       inkscape:connector-curvature="0"
       style="fill:#ffffff;fill-rule:nonzero" />
    <path
       d="m 703.96758,370.44104 0,-15.02079 5.18705,0 q 1.37591,0 2.10336,0.13812 1.01208,0.18992 1.69206,0.70788 0.68006,0.51795 1.09121,1.45028 0.42709,0.93233 0.42709,2.03731 0,1.91644 -1.12287,3.24586 -1.107,1.32944 -4.03266,1.32944 l -3.52659,0 0,6.1119 -1.81865,0 z m 1.81865,-7.89023 3.55825,0 q 1.7712,0 2.49864,-0.70789 0.74325,-0.72514 0.74325,-2.02003 0,-0.94959 -0.44282,-1.62293 -0.42695,-0.67335 -1.1386,-0.88053 -0.45861,-0.13812 -1.69213,-0.13812 l -3.52659,0 0,5.3695 z m 10.52268,7.89023 0,-15.02079 1.69207,0 0,15.02079 -1.69207,0 z m 10.74212,-1.34669 q -0.94882,0.88052 -1.81865,1.2431 -0.86977,0.34532 -1.86612,0.34532 -1.62888,0 -2.51436,-0.86328 -0.88563,-0.88053 -0.88563,-2.24448 0,-0.81147 0.33202,-1.46756 0.33216,-0.65608 0.86991,-1.05317 0.53759,-0.39711 1.21765,-0.60429 0.50607,-0.15538 1.50236,-0.27625 2.05589,-0.27624 3.02043,-0.6388 0,-0.37984 0,-0.48343 0,-1.12225 -0.47433,-1.58842 -0.64839,-0.62155 -1.92945,-0.62155 -1.18599,0 -1.75525,0.4489 -0.56934,0.44889 -0.83824,1.62295 l -1.66055,-0.25899 q 0.23732,-1.15678 0.74339,-1.86465 0.5218,-0.70789 1.48657,-1.08772 0.98041,-0.3971 2.27726,-0.3971 1.28091,0 2.07162,0.32804 0.79071,0.32805 1.17026,0.82873 0.37949,0.5007 0.52188,1.26038 0.0949,0.46617 0.0949,1.69199 l 0,2.46894 q 0,2.57252 0.0948,3.26313 0.11072,0.67335 0.44281,1.2949 l -1.77119,0 q -0.26891,-0.56976 -0.33209,-1.34669 z m -0.14239,-4.10914 q -0.91715,0.3971 -2.76747,0.69062 -1.04374,0.15538 -1.47069,0.36256 -0.42695,0.20718 -0.66426,0.60429 -0.23717,0.39711 -0.23717,0.88053 0,0.7424 0.50608,1.24311 0.52187,0.48341 1.50235,0.48341 0.98056,0 1.7396,-0.46615 0.75904,-0.48343 1.1228,-1.27763 0.26876,-0.63881 0.26876,-1.84739 l 0,-0.67335 z m 4.12834,5.45583 0,-10.89439 1.51822,0 0,1.55388 q 1.10701,-1.7956 3.17862,-1.7956 0.90143,0 1.66047,0.36256 0.75919,0.34532 1.12288,0.93233 0.37955,0.56977 0.53774,1.34669 0.0948,0.51797 0.0948,1.79561 l 0,6.69892 -1.69206,0 0,-6.62986 q 0,-1.12225 -0.20565,-1.67474 -0.18978,-0.56976 -0.69578,-0.8978 -0.50615,-0.32804 -1.18614,-0.32804 -1.07533,0 -1.86611,0.74241 -0.77484,0.74242 -0.77484,2.84878 l 0,5.93925 -1.69213,0 z m 10.50152,0 0,-10.89439 1.51808,0 0,1.55388 q 1.10707,-1.7956 3.17869,-1.7956 0.90143,0 1.66055,0.36256 0.75903,0.34532 1.1228,0.93233 0.37955,0.56977 0.53766,1.34669 0.0949,0.51797 0.0949,1.79561 l 0,6.69892 -1.69207,0 0,-6.62986 q 0,-1.12225 -0.20564,-1.67474 -0.18978,-0.56976 -0.69578,-0.8978 -0.50608,-0.32804 -1.18614,-0.32804 -1.07534,0 -1.86604,0.74241 -0.77499,0.74242 -0.77499,2.84878 l 0,5.93925 -1.69206,0 z m 10.51712,-12.91443 0,-2.10636 1.69221,0 0,2.10636 -1.69221,0 z m 0,12.91443 0,-10.89439 1.69221,0 0,10.89439 -1.69221,0 z m 4.1793,0 0,-10.89439 1.51815,0 0,1.55388 q 1.10701,-1.7956 3.1787,-1.7956 0.90143,0 1.66047,0.36256 0.75911,0.34532 1.1228,0.93233 0.37956,0.56977 0.53767,1.34669 0.0949,0.51797 0.0949,1.79561 l 0,6.69892 -1.69221,0 0,-6.62986 q 0,-1.12225 -0.20557,-1.67474 -0.18978,-0.56976 -0.69578,-0.8978 -0.50608,-0.32804 -1.18606,-0.32804 -1.07541,0 -1.86612,0.74241 -0.77491,0.74242 -0.77491,2.84878 l 0,5.93925 -1.69213,0 z m 10.20095,0.8978 1.62887,0.27624 q 0.11073,0.82872 0.58513,1.20857 0.61673,0.50069 1.70794,0.50069 1.18606,0 1.81865,-0.51796 0.63252,-0.5007 0.86976,-1.41576 0.12652,-0.56974 0.11073,-2.38258 -1.10701,1.433 -2.75175,1.433 -2.05575,0 -3.19435,-1.62293 -1.12287,-1.62294 -1.12287,-3.88469 0,-1.55388 0.5218,-2.86604 0.52194,-1.32943 1.50243,-2.03731 0.98048,-0.72514 2.29299,-0.72514 1.77126,0 2.90993,1.55388 l 0,-1.31216 1.56562,0 0,9.40959 q 0,2.55525 -0.47441,3.60842 -0.47448,1.07046 -1.50243,1.67473 -1.02788,0.62156 -2.53031,0.62156 -1.78698,0 -2.89399,-0.88052 -1.09121,-0.88053 -1.04374,-2.64159 z m 1.39163,-6.54355 q 0,2.15818 0.77491,3.14228 0.79071,0.98413 1.96097,0.98413 1.15447,0 1.94525,-0.98413 0.79071,-0.9841 0.79071,-3.07322 0,-2.00277 -0.82238,-3.00415 -0.80657,-1.01866 -1.94517,-1.01866 -1.1228,0 -1.91351,1.00138 -0.79078,0.98413 -0.79078,2.95237 z"
       id="path31"
       inkscape:connector-curvature="0"
       style="fill:#ffffff;fill-rule:nonzero" />
    <path
       d="m 374.7581,386.42917 5.80371,-12.97168 0,0 c 42.1158,-94.13226 146.15208,-133.16373 232.37144,-87.17923 l 0,0 11.72305,-26.20188 24.55256,78.00351 -71.44466,26.80402 11.72304,-26.20188 0,0 0,0 C 529.77672,306.83589 457.7274,333.86677 428.56043,399.05724 l -5.80369,12.97166 z"
       id="path33"
       inkscape:connector-curvature="0"
       style="fill:#980000;fill-rule:nonzero" />
    <path
       d="m 374.7581,386.42917 5.80371,-12.97168 0,0 c 42.1158,-94.13226 146.15208,-133.16373 232.37144,-87.17923 l 0,0 11.72305,-26.20188 24.55256,78.00351 -71.44466,26.80402 11.72304,-26.20188 0,0 0,0 C 529.77672,306.83589 457.7274,333.86677 428.56043,399.05724 l -5.80369,12.97166 z"
       id="path35"
       inkscape:connector-curvature="0"
       style="fill-rule:nonzero;stroke:#000000;stroke-width:1.0575279;stroke-linecap:butt;stroke-linejoin:round" />
    <path
       d="m 380.83081,575.91685 5.80369,12.97167 0,0 c 42.11578,94.13225 146.15207,133.16376 232.37144,87.17925 l 0,0 11.72304,26.20191 24.55257,-78.00352 -71.44466,-26.80404 11.72305,26.20188 0,0 0,0 c -59.71052,31.84617 -131.75985,4.81526 -160.92681,-60.37517 l -5.80367,-12.97169 z"
       id="path37"
       inkscape:connector-curvature="0"
       style="fill:#980000;fill-rule:nonzero" />
    <path
       d="m 380.83081,575.91685 5.80369,12.97167 0,0 c 42.11578,94.13225 146.15207,133.16376 232.37144,87.17925 l 0,0 11.72304,26.20191 24.55257,-78.00352 -71.44466,-26.80404 11.72305,26.20188 0,0 0,0 c -59.71052,31.84617 -131.75985,4.81526 -160.92681,-60.37517 l -5.80367,-12.97169 z"
       id="path39"
       inkscape:connector-curvature="0"
       style="fill-rule:nonzero;stroke:#000000;stroke-width:1.0575279;stroke-linecap:butt;stroke-linejoin:round" />
    <path
       d="m 19.832674,314.08632 0,0 c 0,-17.17738 12.754767,-31.10241 28.488579,-31.10241 l 113.950897,0 0,0 c 7.55565,0 14.80184,3.27686 20.14448,9.10969 5.34264,5.83283 8.34409,13.74384 8.34409,21.99272 l 0,324.55469 c 0,17.17738 -12.75476,31.1024 -28.48856,31.1024 l -113.9509,0 c -15.733819,0 -28.488586,-13.92502 -28.488586,-31.1024 z"
       id="path41"
       inkscape:connector-curvature="0"
       style="fill:#980000;fill-rule:nonzero" />
    <path
       d="m 19.832674,314.08632 0,0 c 0,-17.17738 12.754767,-31.10241 28.488579,-31.10241 l 113.950897,0 0,0 c 7.55565,0 14.80184,3.27686 20.14448,9.10969 5.34264,5.83283 8.34409,13.74384 8.34409,21.99272 l 0,324.55469 c 0,17.17738 -12.75476,31.1024 -28.48856,31.1024 l -113.9509,0 c -15.733819,0 -28.488586,-13.92502 -28.488586,-31.1024 z"
       id="path43"
       inkscape:connector-curvature="0"
       style="fill-rule:nonzero;stroke:#000000;stroke-width:1.0575279;stroke-linecap:butt;stroke-linejoin:round" />
    <path
       d="m 32.934399,326.99776 0,0 c 0,-9.79644 7.274171,-17.738 16.247302,-17.738 l 112.230009,0 c 4.30905,0 8.44163,1.86881 11.48858,5.19533 3.04697,3.32653 4.75874,7.83826 4.75874,12.54267 l 0,70.94986 c 0,9.79643 -7.27417,17.738 -16.24732,17.738 l -112.230009,0 c -8.973131,0 -16.247302,-7.94157 -16.247302,-17.738 z"
       id="path45"
       inkscape:connector-curvature="0"
       style="fill:#666666;fill-rule:nonzero" />
    <path
       d="m 32.934399,326.99776 0,0 c 0,-9.79644 7.274171,-17.738 16.247302,-17.738 l 112.230009,0 c 4.30905,0 8.44163,1.86881 11.48858,5.19533 3.04697,3.32653 4.75874,7.83826 4.75874,12.54267 l 0,70.94986 c 0,9.79643 -7.27417,17.738 -16.24732,17.738 l -112.230009,0 c -8.973131,0 -16.247302,-7.94157 -16.247302,-17.738 z"
       id="path47"
       inkscape:connector-curvature="0"
       style="fill-rule:nonzero;stroke:#000000;stroke-width:1.0575279;stroke-linecap:butt;stroke-linejoin:round" />
    <path
       d="m 75.863793,333.65487 0,-15.02079 9.96302,0 0,1.76106 -8.144365,0 0,4.60983 7.622501,0 0,1.76105 -7.622501,0 0,5.11052 8.460648,0 0,1.77833 -10.279303,0 z m 12.309687,0 0,-15.02079 1.692128,0 0,15.02079 -1.692128,0 z m 11.058444,-3.50485 1.739576,0.24171 q -0.41117,1.65747 -1.533987,2.58979 -1.106996,0.91507 -2.846572,0.91507 -2.182378,0 -3.463342,-1.46755 -1.280956,-1.46755 -1.280956,-4.1264 0,-2.74517 1.280956,-4.26452 1.296775,-1.51935 3.368452,-1.51935 2.008418,0 3.273556,1.48482 1.265153,1.48482 1.265153,4.19546 0,0.15539 -0.0157,0.48342 l -7.432724,0 q 0.09483,1.7956 0.933037,2.74518 0.838162,0.94959 2.087488,0.94959 0.917233,0 1.565624,-0.51795 0.664195,-0.53524 1.059556,-1.70927 z m -5.550823,-2.98689 5.566649,0 q -0.110716,-1.36396 -0.63258,-2.05456 -0.806533,-1.07045 -2.103308,-1.07045 -1.154437,0 -1.960977,0.86327 -0.790713,0.84598 -0.869784,2.26174 z m 15.735969,2.50345 1.66051,0.24172 q -0.26886,1.86466 -1.39166,2.9351 -1.12283,1.05319 -2.76751,1.05319 -2.04004,0 -3.28938,-1.45028 -1.23352,-1.46756 -1.23352,-4.19546 0,-1.76106 0.52189,-3.07322 0.53768,-1.32943 1.62886,-1.98552 1.10701,-0.67334 2.38796,-0.67334 1.62887,0 2.65681,0.8978 1.02793,0.8978 1.32841,2.55526 l -1.6447,0.27624 q -0.23722,-1.10497 -0.83816,-1.65746 -0.60094,-0.55249 -1.4391,-0.55249 -1.28096,0 -2.08748,1.00138 -0.79072,1.00139 -0.79072,3.15955 0,2.19268 0.7749,3.19407 0.7749,0.98412 2.00841,0.98412 0.99632,0 1.6605,-0.65608 0.66421,-0.67334 0.85398,-2.05458 z m 6.6262,2.33082 0.23721,1.6402 q -0.71163,0.1554 -1.28095,0.1554 -0.91724,0 -1.42329,-0.31078 -0.50606,-0.32804 -0.71166,-0.82873 -0.20557,-0.51796 -0.20557,-2.1927 l 0,-6.25002 -1.24934,0 0,-1.45028 1.24934,0 0,-2.69337 1.67631,-1.10499 0,3.79836 1.70795,0 0,1.45028 -1.70795,0 0,6.35361 q 0,0.79421 0.079,1.01865 0.0948,0.22446 0.30049,0.36258 0.20558,0.13811 0.58513,0.13811 0.26884,0 0.74327,-0.0863 z m 1.52973,1.65747 0,-10.89438 1.51818,0 0,1.65746 q 0.58514,-1.15677 1.07536,-1.51934 0.49025,-0.37984 1.09121,-0.37984 0.85397,0 1.73956,0.60429 l -0.58514,1.70926 q -0.61674,-0.39711 -1.24931,-0.39711 -0.55351,0 -0.99632,0.36258 -0.42697,0.36256 -0.61674,1.00138 -0.28466,0.98413 -0.28466,2.15816 l 0,5.69754 -1.69214,0 z m 6.31959,-12.91442 0,-2.10637 1.69213,0 0,2.10637 -1.69213,0 z m 0,12.91442 0,-10.89438 1.69213,0 0,10.89438 -1.69213,0 z m 10.69472,-3.98829 1.6605,0.24172 q -0.26885,1.86466 -1.39167,2.9351 -1.1228,1.05319 -2.76749,1.05319 -2.04006,0 -3.28938,-1.45028 -1.23352,-1.46756 -1.23352,-4.19546 0,-1.76106 0.52187,-3.07322 0.53769,-1.32943 1.62888,-1.98552 1.107,-0.67334 2.38796,-0.67334 1.62888,0 2.65681,0.8978 1.02793,0.8978 1.3284,2.55526 l -1.6447,0.27624 q -0.23721,-1.10497 -0.83815,-1.65746 -0.60094,-0.55249 -1.43911,-0.55249 -1.28095,0 -2.08748,1.00138 -0.79072,1.00139 -0.79072,3.15955 0,2.19268 0.77489,3.19407 0.77491,0.98412 2.00842,0.98412 0.99631,0 1.66052,-0.65608 0.6642,-0.67334 0.85397,-2.05458 z"
       id="path49"
       inkscape:connector-curvature="0"
       style="fill:#ffffff;fill-rule:nonzero" />
    <path
       d="m 79.756108,357.96438 -5.345234,-15.02079 1.976788,0 3.574028,10.91165 q 0.442802,1.31216 0.727462,2.45167 0.31629,-1.22584 0.743273,-2.45167 l 3.716364,-10.91165 1.866088,0 -5.392674,15.02079 -1.866095,0 z m 15.266966,-3.50486 1.739569,0.24172 q -0.411172,1.65746 -1.533994,2.58979 -1.106997,0.91506 -2.846573,0.91506 -2.182378,0 -3.463327,-1.46755 -1.280963,-1.46755 -1.280963,-4.1264 0,-2.74518 1.280963,-4.26452 1.296768,-1.51935 3.368438,-1.51935 2.008425,0 3.27357,1.48481 1.265145,1.48481 1.265145,4.19547 0,0.15538 -0.0158,0.48343 l -7.432729,0 q 0.09483,1.79559 0.933044,2.74518 0.838155,0.94958 2.087488,0.94958 0.917233,0 1.565617,-0.51796 0.664202,-0.53522 1.059563,-1.70926 z m -5.550838,-2.98689 5.566649,0 q -0.1107,-1.36395 -0.63258,-2.05457 -0.806517,-1.07044 -2.103292,-1.07044 -1.15446,0 -1.960985,0.86326 -0.790706,0.846 -0.869792,2.26175 z m 9.220477,6.49175 0,-15.02079 1.692137,0 0,5.38677 q 1.18606,-1.50209 2.98889,-1.50209 1.107,0 1.91352,0.48343 0.82235,0.46616 1.17026,1.31216 0.36373,0.846 0.36373,2.4344 l 0,6.90612 -1.69213,0 0,-6.90612 q 0,-1.38122 -0.5535,-2.00277 -0.55351,-0.63882 -1.5498,-0.63882 -0.75908,0 -1.42328,0.43164 -0.64838,0.41436 -0.93304,1.15677 -0.28465,0.72514 -0.28465,2.00277 l 0,5.95653 -1.692137,0 z m 10.517227,-12.91442 0,-2.10637 1.69213,0 0,2.10637 -1.69213,0 z m 0,12.91442 0,-10.8944 1.69213,0 0,10.8944 -1.69213,0 z m 10.69472,-3.98828 1.66049,0.24171 q -0.26884,1.86465 -1.39164,2.93509 -1.12281,1.05319 -2.76751,1.05319 -2.04005,0 -3.28937,-1.45028 -1.23352,-1.46756 -1.23352,-4.19547 0,-1.76106 0.52187,-3.07321 0.53768,-1.32943 1.62887,-1.98551 1.10701,-0.67335 2.38796,-0.67335 1.62889,0 2.65681,0.8978 1.02793,0.89779 1.3284,2.55526 l -1.64469,0.27624 q -0.23722,-1.10498 -0.83814,-1.65747 -0.60096,-0.55248 -1.43912,-0.55248 -1.28095,0 -2.08749,1.00138 -0.79072,1.00138 -0.79072,3.15955 0,2.19269 0.77491,3.19407 0.7749,0.98412 2.00842,0.98412 0.9963,0 1.66051,-0.65607 0.66419,-0.67335 0.85396,-2.05457 z m 2.89401,3.98828 0,-15.02079 1.69213,0 0,15.02079 -1.69213,0 z m 11.05846,-3.50486 1.73957,0.24172 q -0.41118,1.65746 -1.53398,2.58979 -1.107,0.91506 -2.84659,0.91506 -2.18236,0 -3.46333,-1.46755 -1.28096,-1.46755 -1.28096,-4.1264 0,-2.74518 1.28096,-4.26452 1.29679,-1.51935 3.36846,-1.51935 2.00841,0 3.27354,1.48481 1.26516,1.48481 1.26516,4.19547 0,0.15538 -0.0157,0.48343 l -7.43271,0 q 0.0948,1.79559 0.93303,2.74518 0.83816,0.94958 2.08749,0.94958 0.91723,0 1.56563,-0.51796 0.66419,-0.53522 1.05956,-1.70926 z m -5.55082,-2.98689 5.56663,0 q -0.1107,-1.36395 -0.63257,-2.05457 -0.80654,-1.07044 -2.1033,-1.07044 -1.15446,0 -1.96098,0.86326 -0.79071,0.846 -0.86978,2.26175 z"
       id="path51"
       inkscape:connector-curvature="0"
       style="fill:#ffffff;fill-rule:nonzero" />
    <path
       d="m 78.290804,377.00797 1.818633,0.5007 q -0.569305,2.45167 -2.05586,3.74656 -1.486545,1.27764 -3.637286,1.27764 -2.229819,0 -3.621475,-0.98413 -1.391664,-1.00139 -2.119119,-2.86604 -0.727454,-1.8819 -0.727454,-4.04007 0,-2.34807 0.806518,-4.09186 0.822351,-1.7438 2.340526,-2.64159 1.518168,-0.91506 3.336823,-0.91506 2.07167,0 3.479152,1.15676 1.407468,1.13951 1.960971,3.21134 l -1.787026,0.46618 q -0.474424,-1.6402 -1.391656,-2.38261 -0.917233,-0.75967 -2.293079,-0.75967 -1.581427,0 -2.656794,0.82873 -1.05957,0.82874 -1.502372,2.24449 -0.426975,1.39846 -0.426975,2.88329 0,1.91645 0.506061,3.34947 0.521865,1.41575 1.597239,2.12363 1.091192,0.70787 2.340511,0.70787 1.533994,0 2.593557,-0.94959 1.059563,-0.96685 1.439105,-2.86604 z m 3.594094,5.26591 0,-15.02079 1.692128,0 0,5.38677 q 1.186074,-1.50207 2.98891,-1.50207 1.106996,0 1.913536,0.48343 0.822344,0.46615 1.170256,1.31215 0.363723,0.84599 0.363723,2.43439 l 0,6.90612 -1.692135,0 0,-6.90612 q 0,-1.38122 -0.553502,-2.00278 -0.553487,-0.63879 -1.549798,-0.63879 -0.759084,0 -1.423286,0.43161 -0.648384,0.41438 -0.933044,1.1568 -0.28466,0.72514 -0.28466,2.00277 l 0,5.95651 -1.692128,0 z m 17.016921,-1.3467 q -0.948847,0.88054 -1.818647,1.24311 -0.869784,0.3453 -1.866095,0.3453 -1.628853,0 -2.514464,-0.86326 -0.885603,-0.88052 -0.885603,-2.24448 0,-0.81147 0.332094,-1.46755 0.332108,-0.65609 0.869799,-1.05319 0.537683,-0.39708 1.217697,-0.60427 0.506061,-0.1554 1.502364,-0.27625 2.055859,-0.27624 3.020525,-0.63883 0,-0.37983 0,-0.48341 0,-1.12224 -0.474431,-1.58842 -0.648384,-0.62153 -1.929347,-0.62153 -1.186067,0 -1.755388,0.44889 -0.569313,0.44889 -0.838155,1.62293 l -1.660498,-0.25897 q 0.237212,-1.15679 0.743266,-1.86465 0.521879,-0.70788 1.486546,-1.08773 0.980484,-0.39708 2.277259,-0.39708 1.280964,0 2.071678,0.32802 0.790721,0.32806 1.17027,0.82875 0.379541,0.5007 0.521861,1.26037 0.0948,0.46615 0.0948,1.69198 l 0,2.46894 q 0,2.57253 0.0948,3.26313 0.11072,0.67335 0.44281,1.2949 l -1.771204,0 q -0.268841,-0.56974 -0.332093,-1.3467 z m -0.14233,-4.10912 q -0.917233,0.39709 -2.767502,0.69061 -1.043744,0.15539 -1.470727,0.36257 -0.42699,0.20719 -0.664202,0.60428 -0.237212,0.39711 -0.237212,0.88053 0,0.7424 0.506053,1.2431 0.521873,0.48342 1.502357,0.48342 0.980485,0 1.739569,-0.46616 0.759092,-0.48342 1.122823,-1.27762 0.268841,-0.63882 0.268841,-1.84738 l 0,-0.67335 z m 4.112441,5.45582 0,-10.89439 1.51818,0 0,1.65748 q 0.58512,-1.15678 1.07536,-1.51936 0.49024,-0.37982 1.09119,-0.37982 0.85398,0 1.73957,0.60428 l -0.58512,1.70926 q -0.61677,-0.3971 -1.24934,-0.3971 -0.55349,0 -0.9963,0.36256 -0.42699,0.36257 -0.61675,1.0014 -0.28467,0.9841 -0.28467,2.15815 l 0,5.69754 -1.69212,0 z m 6.00328,0.89778 1.62888,0.27626 q 0.1107,0.82873 0.58512,1.20857 0.61677,0.5007 1.70795,0.5007 1.18608,0 1.81865,-0.51796 0.63258,-0.5007 0.86979,-1.41575 0.12651,-0.56976 0.1107,-2.38262 -1.107,1.43302 -2.75169,1.43302 -2.05586,0 -3.19449,-1.62293 -1.12283,-1.62295 -1.12283,-3.88469 0,-1.55388 0.52189,-2.86603 0.52187,-1.32943 1.50235,-2.0373 0.98049,-0.72514 2.29308,-0.72514 1.7712,0 2.90983,1.55386 l 0,-1.31216 1.56561,0 0,9.40958 q 0,2.55526 -0.47442,3.60844 -0.47443,1.07045 -1.50236,1.67473 -1.02793,0.62154 -2.53029,0.62154 -1.78702,0 -2.89402,-0.88051 -1.09118,-0.88055 -1.04375,-2.64161 z m 1.39166,-6.54352 q 0,2.15816 0.77491,3.14228 0.79071,0.98412 1.96097,0.98412 1.15444,0 1.94516,-0.98412 0.79072,-0.98412 0.79072,-3.07321 0,-2.00277 -0.82235,-3.00416 -0.80653,-1.01865 -1.94516,-1.01865 -1.12282,0 -1.91353,1.00138 -0.79072,0.98412 -0.79072,2.95236 z m 9.42606,-7.26868 0,-2.10637 1.69212,0 0,2.10637 -1.69212,0 z m 0,12.91442 0,-10.89439 1.69212,0 0,10.89439 -1.69212,0 z m 4.17922,0 0,-10.89439 1.51818,0 0,1.55388 q 1.107,-1.79558 3.17867,-1.79558 0.90141,0 1.66051,0.36255 0.75909,0.34532 1.1228,0.93233 0.37955,0.56977 0.5377,1.34669 0.0948,0.51797 0.0948,1.7956 l 0,6.69892 -1.69212,0 0,-6.62987 q 0,-1.12223 -0.20559,-1.67472 -0.18977,-0.56977 -0.69584,-0.8978 -0.50606,-0.32804 -1.18606,-0.32804 -1.07538,0 -1.8661,0.7424 -0.7749,0.74241 -0.7749,2.84878 l 0,5.93925 -1.69213,0 z m 10.20096,0.89778 1.62887,0.27626 q 0.1107,0.82873 0.58515,1.20857 0.61674,0.5007 1.70794,0.5007 1.18606,0 1.81864,-0.51796 0.63256,-0.5007 0.86978,-1.41575 0.12651,-0.56976 0.1107,-2.38262 -1.107,1.43302 -2.75169,1.43302 -2.05586,0 -3.1945,-1.62293 -1.12281,-1.62295 -1.12281,-3.88469 0,-1.55388 0.52187,-2.86603 0.52188,-1.32943 1.50236,-2.0373 0.98049,-0.72514 2.29308,-0.72514 1.77121,0 2.90982,1.55386 l 0,-1.31216 1.56562,0 0,9.40958 q 0,2.55526 -0.47441,3.60844 -0.47444,1.07045 -1.50237,1.67473 -1.02793,0.62154 -2.53029,0.62154 -1.78701,0 -2.89401,-0.88051 -1.0912,-0.88055 -1.04375,-2.64161 z m 1.39167,-6.54352 q 0,2.15816 0.77488,3.14228 0.79072,0.98412 1.96099,0.98412 1.15444,0 1.94516,-0.98412 0.79072,-0.98412 0.79072,-3.07321 0,-2.00277 -0.82235,-3.00416 -0.80654,-1.01865 -1.94517,-1.01865 -1.12281,0 -1.91352,1.00138 -0.79071,0.98412 -0.79071,2.95236 z"
       id="path53"
       inkscape:connector-curvature="0"
       style="fill:#ffffff;fill-rule:nonzero" />
    <path
       d="m 86.840694,406.58339 0,-15.02079 4.74429,0 q 1.597231,0 2.451212,0.20719 1.170256,0.29349 2.008426,1.07043 1.091177,1.01865 1.628868,2.5898 0.537683,1.55388 0.537683,3.55665 0,1.70925 -0.363716,3.03868 -0.363738,1.31216 -0.933051,2.19268 -0.569321,0.86327 -1.249327,1.36397 -0.68002,0.48342 -1.644694,0.7424 -0.964681,0.25899 -2.214,0.25899 l -4.965691,0 z m 1.818632,-1.77833 2.941469,0 q 1.360027,0 2.134937,-0.27625 0.774895,-0.27625 1.233508,-0.77693 0.648384,-0.70788 1.012122,-1.89918 0.363723,-1.19131 0.363723,-2.90057 0,-2.34808 -0.711635,-3.60844 -0.711651,-1.27763 -1.723765,-1.70926 -0.72747,-0.31077 -2.356331,-0.31077 l -2.894028,0 0,11.4814 z m 18.111644,0.43164 q -0.94886,0.88051 -1.81865,1.24309 -0.86978,0.34531 -1.86608,0.34531 -1.62888,0 -2.51447,-0.86328 -0.885607,-0.88052 -0.885607,-2.24447 0,-0.81148 0.332097,-1.46756 0.3321,-0.65607 0.8698,-1.05317 0.53767,-0.39711 1.21768,-0.6043 0.50606,-0.15538 1.50237,-0.27624 2.05587,-0.27624 3.02053,-0.6388 0,-0.37984 0,-0.48343 0,-1.12225 -0.47443,-1.5884 -0.64838,-0.62155 -1.92934,-0.62155 -1.18607,0 -1.75539,0.44889 -0.56931,0.4489 -0.83817,1.62293 l -1.660487,-0.25898 q 0.237207,-1.15676 0.743257,-1.86465 0.52188,-0.70786 1.48655,-1.0877 0.98049,-0.39711 2.27727,-0.39711 1.28096,0 2.07167,0.32804 0.79072,0.32804 1.17026,0.82873 0.37955,0.5007 0.52187,1.26037 0.0948,0.46615 0.0948,1.69199 l 0,2.46894 q 0,2.57252 0.0948,3.26314 0.11071,0.67333 0.4428,1.2949 l -1.7712,0 q -0.26884,-0.56977 -0.33209,-1.34669 z m -0.14233,-4.10914 q -0.91723,0.39709 -2.7675,0.69061 -1.04374,0.15539 -1.47073,0.36255 -0.42699,0.20718 -0.66421,0.6043 -0.23721,0.3971 -0.23721,0.88052 0,0.74242 0.50606,1.24311 0.52187,0.48343 1.50236,0.48343 0.98049,0 1.73957,-0.46616 0.75909,-0.48343 1.12281,-1.27763 0.26885,-0.63882 0.26885,-1.84739 l 0,-0.67334 z m 7.82881,3.79836 0.23722,1.64019 q -0.71165,0.1554 -1.28097,0.1554 -0.91723,0 -1.42328,-0.31078 -0.50606,-0.32806 -0.71164,-0.82873 -0.2056,-0.51796 -0.2056,-2.1927 l 0,-6.25002 -1.24932,0 0,-1.45029 1.24932,0 0,-2.69338 1.67632,-1.10498 0,3.79836 1.70795,0 0,1.45029 -1.70795,0 0,6.35361 q 0,0.7942 0.0791,1.01867 0.0948,0.22443 0.30046,0.36256 0.20559,0.13812 0.58514,0.13812 0.26884,0 0.74327,-0.0863 z m 8.06106,0.31078 q -0.94887,0.88051 -1.81866,1.24309 -0.86978,0.34531 -1.86608,0.34531 -1.62888,0 -2.51447,-0.86328 -0.88561,-0.88052 -0.88561,-2.24447 0,-0.81148 0.3321,-1.46756 0.33211,-0.65607 0.8698,-1.05317 0.53768,-0.39711 1.21769,-0.6043 0.50606,-0.15538 1.50236,-0.27624 2.05586,-0.27624 3.02052,-0.6388 0,-0.37984 0,-0.48343 0,-1.12225 -0.47442,-1.5884 -0.64838,-0.62155 -1.92934,-0.62155 -1.18607,0 -1.75539,0.44889 -0.56931,0.4489 -0.83816,1.62293 l -1.6605,-0.25898 q 0.23721,-1.15676 0.74328,-1.86465 0.52187,-0.70786 1.48653,-1.0877 0.9805,-0.39711 2.27726,-0.39711 1.28097,0 2.07167,0.32804 0.79072,0.32804 1.17027,0.82873 0.37955,0.5007 0.52186,1.26037 0.0948,0.46615 0.0948,1.69199 l 0,2.46894 q 0,2.57252 0.0948,3.26314 0.1107,0.67333 0.44279,1.2949 l -1.7712,0 q -0.26884,-0.56977 -0.3321,-1.34669 z m -0.14235,-4.10914 q -0.91723,0.39709 -2.76749,0.69061 -1.04374,0.15539 -1.47074,0.36255 -0.42698,0.20718 -0.6642,0.6043 -0.2372,0.3971 -0.2372,0.88052 0,0.74242 0.50606,1.24311 0.52186,0.48343 1.50235,0.48343 0.98048,0 1.73957,-0.46616 0.75909,-0.48343 1.12281,-1.27763 0.26884,-0.63882 0.26884,-1.84739 l 0,-0.67334 z"
       id="path55"
       inkscape:connector-curvature="0"
       style="fill:#ffffff;fill-rule:nonzero" />
    <path
       d="m 32.934399,433.74243 0,0 c 0,-4.0717 3.023372,-7.37246 6.752895,-7.37246 l 131.218846,0 c 1.79097,0 3.50859,0.77672 4.775,2.15932 1.26641,1.38261 1.97791,3.25784 1.97791,5.21314 l 0,29.48897 c 0,4.07168 -3.0234,7.37246 -6.75291,7.37246 l -131.218846,0 c -3.729523,0 -6.752895,-3.30078 -6.752895,-7.37246 z"
       id="path57"
       inkscape:connector-curvature="0"
       style="fill:#666666;fill-rule:nonzero" />
    <path
       d="m 32.934399,433.74243 0,0 c 0,-4.0717 3.023372,-7.37246 6.752895,-7.37246 l 131.218846,0 c 1.79097,0 3.50859,0.77672 4.775,2.15932 1.26641,1.38261 1.97791,3.25784 1.97791,5.21314 l 0,29.48897 c 0,4.07168 -3.0234,7.37246 -6.75291,7.37246 l -131.218846,0 c -3.729523,0 -6.752895,-3.30078 -6.752895,-7.37246 z"
       id="path59"
       inkscape:connector-curvature="0"
       style="fill-rule:nonzero;stroke:#000000;stroke-width:1.0575279;stroke-linecap:butt;stroke-linejoin:round" />
    <path
       d="m 50.940516,456.13336 -3.653113,-15.02079 1.866096,0 2.087488,9.84121 q 0.34792,1.55387 0.585139,3.07322 0.521865,-2.39988 0.616747,-2.77973 l 2.625179,-10.1347 2.198197,0 1.976788,7.59672 q 0.74328,2.83149 1.059563,5.31771 0.268834,-1.41576 0.695832,-3.26315 l 2.150741,-9.65128 1.834465,0 -3.779631,15.02079 -1.75538,0 -2.894029,-11.44688 q -0.363723,-1.43302 -0.426975,-1.76106 -0.221401,1.03592 -0.41118,1.76106 l -2.925658,11.44688 -1.850269,0 z m 22.02863,-3.50485 1.739577,0.24171 q -0.411172,1.65746 -1.534002,2.58978 -1.106996,0.91507 -2.846573,0.91507 -2.18237,0 -3.463326,-1.46755 -1.280964,-1.46756 -1.280964,-4.1264 0,-2.74518 1.280964,-4.26452 1.296775,-1.51935 3.368437,-1.51935 2.008433,0 3.273571,1.48482 1.265145,1.48481 1.265145,4.19546 0,0.15539 -0.0158,0.48341 l -7.432737,0 q 0.09484,1.79561 0.933051,2.74519 0.838155,0.9496 2.087496,0.9496 0.917226,0 1.565609,-0.51796 0.664203,-0.53523 1.059563,-1.70926 z m -5.550837,-2.98689 5.566641,0 q -0.110685,-1.36396 -0.632572,-2.0546 -0.806525,-1.07042 -2.103293,-1.07042 -1.154452,0 -1.960977,0.86324 -0.790721,0.84603 -0.869799,2.26178 z m 15.735973,5.14505 q -0.948855,0.88052 -1.818639,1.2431 -0.869792,0.3453 -1.866088,0.3453 -1.628884,0 -2.514487,-0.86326 -0.885596,-0.88053 -0.885596,-2.24449 0,-0.81147 0.332101,-1.46755 0.332094,-0.65609 0.869785,-1.05318 0.537683,-0.3971 1.217704,-0.60428 0.506061,-0.15539 1.502358,-0.27626 2.055859,-0.27624 3.02054,-0.63881 0,-0.37982 0,-0.48342 0,-1.12225 -0.474431,-1.5884 -0.648392,-0.62155 -1.929348,-0.62155 -1.186075,0 -1.755395,0.4489 -0.569306,0.44888 -0.838148,1.62293 l -1.660513,-0.25898 q 0.237227,-1.15677 0.74328,-1.86465 0.521873,-0.70788 1.486546,-1.08772 0.980486,-0.3971 2.277261,-0.3971 1.280956,0 2.07167,0.32805 0.790706,0.32803 1.170256,0.82873 0.379542,0.50069 0.521872,1.26036 0.09484,0.46617 0.09484,1.692 l 0,2.46894 q 0,2.57252 0.09483,3.26313 0.1107,0.67335 0.442801,1.2949 l -1.771198,0 q -0.268849,-0.56976 -0.332101,-1.34669 z m -0.142322,-4.10914 q -0.917233,0.3971 -2.76751,0.6906 -1.043752,0.15538 -1.470728,0.36258 -0.42699,0.20718 -0.664209,0.60429 -0.237205,0.3971 -0.237205,0.88051 0,0.74242 0.506054,1.24311 0.521879,0.48343 1.502357,0.48343 0.980493,0 1.739584,-0.46616 0.759084,-0.48343 1.122808,-1.27764 0.268849,-0.63881 0.268849,-1.84738 l 0,-0.67334 z m 7.828805,3.79836 0.237219,1.64019 q -0.71165,0.1554 -1.280963,0.1554 -0.917226,0 -1.423287,-0.31078 -0.506061,-0.32804 -0.711643,-0.82873 -0.205582,-0.51796 -0.205582,-2.19269 l 0,-6.25003 -1.249327,0 0,-1.45027 1.249327,0 0,-2.69339 1.676317,-1.10499 0,3.79838 1.707939,0 0,1.45027 -1.707939,0 0,6.35362 q 0,0.7942 0.07904,1.01865 0.09483,0.22445 0.300471,0.36258 0.205582,0.13811 0.585124,0.13811 0.268842,0 0.743266,-0.0864 z m 1.545558,1.65747 0,-15.02079 1.692128,0 0,5.38677 q 1.186082,-1.50209 2.98891,-1.50209 1.107004,0 1.913529,0.48342 0.822336,0.46618 1.17026,1.31217 0.36373,0.84599 0.36373,2.4344 l 0,6.90612 -1.692131,0 0,-6.90612 q 0,-1.38121 -0.553495,-2.00276 -0.553509,-0.63882 -1.549805,-0.63882 -0.759084,0 -1.423286,0.43164 -0.648391,0.41435 -0.933052,1.15677 -0.28466,0.72514 -0.28466,2.00276 l 0,5.95653 -1.692128,0 z m 17.333207,-3.50485 1.73957,0.24171 q -0.41117,1.65746 -1.53398,2.58978 -1.107,0.91507 -2.84658,0.91507 -2.18237,0 -3.46334,-1.46755 -1.28095,-1.46756 -1.28095,-4.1264 0,-2.74518 1.28095,-4.26452 1.29678,-1.51935 3.36845,-1.51935 2.00842,0 3.27357,1.48482 1.26514,1.48481 1.26514,4.19546 0,0.15539 -0.0157,0.48341 l -7.43273,0 q 0.0948,1.79561 0.93304,2.74519 0.83816,0.9496 2.08749,0.9496 0.91723,0 1.56562,-0.51796 0.6642,-0.53523 1.05956,-1.70926 z m -5.55082,-2.98689 5.56664,0 q -0.1107,-1.36396 -0.63258,-2.0546 -0.80653,-1.07042 -2.1033,-1.07042 -1.15444,0 -1.96097,0.86324 -0.79072,0.84603 -0.86979,2.26178 z m 9.20465,6.49174 0,-10.89438 1.51817,0 0,1.65746 q 0.58514,-1.15678 1.07537,-1.51936 0.49025,-0.37983 1.0912,-0.37983 0.85397,0 1.73958,0.60429 l -0.58515,1.70925 q -0.61675,-0.39709 -1.24932,-0.39709 -0.5535,0 -0.99631,0.36257 -0.42698,0.36256 -0.61674,1.00139 -0.28466,0.98411 -0.28466,2.15816 l 0,5.69754 -1.69214,0 z m 11.77126,0 0,-15.02079 4.7443,0 q 1.59726,0 2.45123,0.20718 1.17026,0.2935 2.00841,1.07046 1.09119,1.01864 1.62889,2.58978 0.53766,1.55388 0.53766,3.55665 0,1.70925 -0.36371,3.03869 -0.36373,1.31216 -0.93306,2.19269 -0.56931,0.86326 -1.24933,1.36395 -0.68,0.48343 -1.64468,0.7424 -0.96466,0.25899 -2.214,0.25899 l -4.96571,0 z m 1.81866,-1.77833 2.94146,0 q 1.36002,0 2.13492,-0.27625 0.7749,-0.27624 1.23352,-0.77694 0.64839,-0.70787 1.01212,-1.89917 0.36373,-1.1913 0.36373,-2.90056 0,-2.34808 -0.71164,-3.60845 -0.71164,-1.27764 -1.72376,-1.70925 -0.72745,-0.31078 -2.35633,-0.31078 l -2.89402,0 0,11.4814 z m 18.11163,0.43164 q -0.94885,0.88052 -1.81866,1.2431 -0.86977,0.3453 -1.86606,0.3453 -1.62889,0 -2.51448,-0.86326 -0.88561,-0.88053 -0.88561,-2.24449 0,-0.81147 0.33209,-1.46755 0.3321,-0.65609 0.8698,-1.05318 0.5377,-0.3971 1.21769,-0.60428 0.50606,-0.15539 1.50238,-0.27626 2.05585,-0.27624 3.02052,-0.63881 0,-0.37982 0,-0.48342 0,-1.12225 -0.47444,-1.5884 -0.64837,-0.62155 -1.92934,-0.62155 -1.18606,0 -1.75538,0.4489 -0.56932,0.44888 -0.83817,1.62293 l -1.66049,-0.25898 q 0.2372,-1.15677 0.74327,-1.86465 0.52188,-0.70788 1.48654,-1.08772 0.98049,-0.3971 2.27726,-0.3971 1.28097,0 2.07169,0.32805 0.79071,0.32803 1.17026,0.82873 0.37954,0.50069 0.52186,1.26036 0.0948,0.46617 0.0948,1.692 l 0,2.46894 q 0,2.57252 0.0948,3.26313 0.1107,0.67335 0.4428,1.2949 l -1.77121,0 q -0.26882,-0.56976 -0.3321,-1.34669 z m -0.14233,-4.10914 q -0.91723,0.3971 -2.76751,0.6906 -1.04375,0.15538 -1.47072,0.36258 -0.42699,0.20718 -0.66421,0.60429 -0.2372,0.3971 -0.2372,0.88051 0,0.74242 0.50606,1.24311 0.52186,0.48343 1.50235,0.48343 0.98048,0 1.73958,-0.46616 0.75907,-0.48343 1.12282,-1.27764 0.26883,-0.63881 0.26883,-1.84738 l 0,-0.67334 z m 7.82881,3.79836 0.23721,1.64019 q -0.71165,0.1554 -1.28096,0.1554 -0.91723,0 -1.42328,-0.31078 -0.50606,-0.32804 -0.71164,-0.82873 -0.20559,-0.51796 -0.20559,-2.19269 l 0,-6.25003 -1.24934,0 0,-1.45027 1.24934,0 0,-2.69339 1.6763,-1.10499 0,3.79838 1.70796,0 0,1.45027 -1.70796,0 0,6.35362 q 0,0.7942 0.079,1.01865 0.0948,0.22445 0.30045,0.36258 0.20561,0.13811 0.58515,0.13811 0.26883,0 0.74327,-0.0864 z m 8.06104,0.31078 q -0.94884,0.88052 -1.81864,1.2431 -0.86977,0.3453 -1.86608,0.3453 -1.62887,0 -2.51447,-0.86326 -0.88561,-0.88053 -0.88561,-2.24449 0,-0.81147 0.3321,-1.46755 0.33211,-0.65609 0.86979,-1.05318 0.5377,-0.3971 1.2177,-0.60428 0.50605,-0.15539 1.50237,-0.27626 2.05585,-0.27624 3.02051,-0.63881 0,-0.37982 0,-0.48342 0,-1.12225 -0.47441,-1.5884 -0.64839,-0.62155 -1.92936,-0.62155 -1.18606,0 -1.75538,0.4489 -0.56932,0.44888 -0.83817,1.62293 l -1.66049,-0.25898 q 0.2372,-1.15677 0.74326,-1.86465 0.52188,-0.70788 1.48656,-1.08772 0.98049,-0.3971 2.27726,-0.3971 1.28097,0 2.07168,0.32805 0.79071,0.32803 1.17025,0.82873 0.37955,0.50069 0.52187,1.26036 0.0948,0.46617 0.0948,1.692 l 0,2.46894 q 0,2.57252 0.0948,3.26313 0.1107,0.67335 0.44281,1.2949 l -1.77122,0 q -0.26883,-0.56976 -0.33208,-1.34669 z m -0.14233,-4.10914 q -0.91722,0.3971 -2.76748,0.6906 -1.04375,0.15538 -1.47074,0.36258 -0.42699,0.20718 -0.66421,0.60429 -0.2372,0.3971 -0.2372,0.88051 0,0.74242 0.50605,1.24311 0.52187,0.48343 1.50236,0.48343 0.98049,0 1.73958,-0.46616 0.75906,-0.48343 1.12282,-1.27764 0.26882,-0.63881 0.26882,-1.84738 l 0,-0.67334 z"
       id="path61"
       inkscape:connector-curvature="0"
       style="fill:#ffffff;fill-rule:nonzero" />
    <path
       d="m 32.934399,492.76745 0,0 c 0,-6.33981 4.707512,-11.47923 10.514532,-11.47923 l 123.695559,0 c 2.78864,0 5.46305,1.2094 7.43489,3.36218 1.97184,2.15277 3.07965,5.07256 3.07965,8.11705 l 0,45.91556 c 0,6.3398 -4.70754,11.47925 -10.51454,11.47925 l -123.695559,0 c -5.80702,0 -10.514532,-5.13945 -10.514532,-11.47925 z"
       id="path63"
       inkscape:connector-curvature="0"
       style="fill:#666666;fill-rule:nonzero" />
    <path
       d="m 32.934399,492.76745 0,0 c 0,-6.33981 4.707512,-11.47923 10.514532,-11.47923 l 123.695559,0 c 2.78864,0 5.46305,1.2094 7.43489,3.36218 1.97184,2.15277 3.07965,5.07256 3.07965,8.11705 l 0,45.91556 c 0,6.3398 -4.70754,11.47925 -10.51454,11.47925 l -123.695559,0 c -5.80702,0 -10.514532,-5.13945 -10.514532,-11.47925 z"
       id="path65"
       inkscape:connector-curvature="0"
       style="fill-rule:nonzero;stroke:#000000;stroke-width:1.0575279;stroke-linecap:butt;stroke-linejoin:round" />
    <path
       d="m 73.638818,506.38266 1.707939,-0.15538 q 0.126519,1.12223 0.569313,1.84738 0.442801,0.72514 1.375845,1.17403 0.948855,0.4489 2.119119,0.4489 1.043737,0 1.834459,-0.34531 0.806532,-0.34531 1.201878,-0.93231 0.395375,-0.58702 0.395375,-1.27765 0,-0.70785 -0.379542,-1.22581 -0.379549,-0.53525 -1.249341,-0.8978 -0.553495,-0.24171 -2.451213,-0.72514 -1.897718,-0.5007 -2.656802,-0.94961 -0.980492,-0.56974 -1.470742,-1.39846 -0.474424,-0.82874 -0.474424,-1.86466 0,-1.13951 0.585132,-2.12363 0.600943,-1.00139 1.723758,-1.50207 1.138626,-0.51796 2.530282,-0.51796 1.533995,0 2.704259,0.53522 1.170263,0.53523 1.787017,1.5884 0.632572,1.03592 0.680013,2.36535 l -1.739576,0.13812 q -0.142338,-1.41575 -0.964674,-2.14089 -0.806525,-0.74242 -2.38796,-0.74242 -1.644688,0 -2.403779,0.67336 -0.759084,0.65608 -0.759084,1.5884 0,0.81146 0.537691,1.32941 0.521872,0.51797 2.735872,1.07046 2.229819,0.55249 3.05217,0.96684 1.201879,0.60431 1.771199,1.53664 0.585117,0.91505 0.585117,2.12361 0,1.20857 -0.632565,2.27901 -0.632573,1.05319 -1.81864,1.64022 -1.170263,0.58702 -2.640998,0.58702 -1.866088,0 -3.131233,-0.58702 -1.265145,-0.6043 -1.992607,-1.7956 -0.711629,-1.1913 -0.743258,-2.71065 z m 23.031774,-0.43163 1.818655,0.50069 q -0.569321,2.45167 -2.055859,3.74657 -1.486553,1.27764 -3.637301,1.27764 -2.229819,0 -3.621476,-0.98413 -1.391664,-1.00139 -2.119126,-2.86604 -0.727446,-1.88191 -0.727446,-4.04007 0,-2.34809 0.806532,-4.09188 0.822344,-1.7438 2.340512,-2.64158 1.518175,-0.91505 3.336822,-0.91505 2.071678,0 3.479145,1.15676 1.407476,1.13951 1.960977,3.21135 l -1.787017,0.46616 q -0.474431,-1.6402 -1.391664,-2.3826 -0.917225,-0.75969 -2.293078,-0.75969 -1.58142,0 -2.656802,0.82875 -1.059555,0.82873 -1.502349,2.24449 -0.426998,1.39848 -0.426998,2.88329 0,1.91644 0.506061,3.34946 0.521872,1.41575 1.597246,2.12362 1.091185,0.70788 2.340519,0.70788 1.533987,0 2.593542,-0.94958 1.059563,-0.96686 1.439105,-2.86604 z m 2.297326,5.2659 5.297792,-15.02077 1.96097,0 5.6299,15.02077 -2.07168,0 -1.61305,-4.55802 -5.75642,0 -1.50235,4.55802 -1.945162,0 z m 3.969392,-6.16368 4.66521,0 -1.42328,-4.17821 q -0.6642,-1.88191 -0.98049,-3.10775 -0.26884,1.45029 -0.74326,2.86604 l -1.51818,4.41992 z m 10.14312,6.16368 0,-15.02077 4.74429,0 q 1.59725,0 2.45122,0.20718 1.17025,0.29351 2.00842,1.07043 1.09118,1.01867 1.62887,2.58981 0.53767,1.55386 0.53767,3.55664 0,1.70925 -0.3637,3.03869 -0.36374,1.31216 -0.93306,2.19269 -0.56931,0.86327 -1.24932,1.36396 -0.68002,0.48342 -1.64469,0.7424 -0.96467,0.25897 -2.214,0.25897 l -4.9657,0 z m 1.81864,-1.77831 2.94146,0 q 1.36004,0 2.13494,-0.27626 0.77489,-0.27623 1.23352,-0.77693 0.64837,-0.70786 1.01212,-1.89918 0.36372,-1.1913 0.36372,-2.90056 0,-2.34809 -0.71163,-3.60843 -0.71166,-1.27764 -1.72378,-1.70927 -0.72745,-0.31078 -2.35632,-0.31078 l -2.89403,0 0,11.48141 z m 10.29936,1.77831 5.29781,-15.02077 1.96098,0 5.62987,15.02077 -2.07167,0 -1.61305,-4.55802 -5.75641,0 -1.50236,4.55802 -1.94517,0 z m 3.9694,-6.16368 4.66522,0 -1.42329,-4.17821 q -0.6642,-1.88191 -0.98048,-3.10775 -0.26885,1.45029 -0.74327,2.86604 l -1.51818,4.41992 z"
       id="path67"
       inkscape:connector-curvature="0"
       style="fill:#ffffff;fill-rule:nonzero" />
    <path
       d="m 86.840694,535.52644 0,-15.02079 4.74429,0 q 1.597231,0 2.451212,0.20718 1.170256,0.29352 2.008426,1.07045 1.091177,1.01865 1.628868,2.58979 0.537683,1.55388 0.537683,3.55666 0,1.70926 -0.363716,3.03868 -0.363738,1.31216 -0.933051,2.1927 -0.569321,0.86326 -1.249327,1.36395 -0.68002,0.48342 -1.644694,0.74241 -0.964681,0.25897 -2.214,0.25897 l -4.965691,0 z m 1.818632,-1.77832 2.941469,0 q 1.360027,0 2.134937,-0.27624 0.774895,-0.27625 1.233508,-0.77694 0.648384,-0.70788 1.012122,-1.89919 0.363723,-1.19129 0.363723,-2.90056 0,-2.34807 -0.711635,-3.60844 -0.711651,-1.27763 -1.723765,-1.70927 -0.72747,-0.31077 -2.356331,-0.31077 l -2.894028,0 0,11.48141 z m 18.111644,0.43162 q -0.94886,0.88055 -1.81865,1.24311 -0.86978,0.34531 -1.86608,0.34531 -1.62888,0 -2.51447,-0.86327 -0.885607,-0.88052 -0.885607,-2.24448 0,-0.81146 0.332097,-1.46755 0.3321,-0.65609 0.8698,-1.05319 0.53767,-0.39709 1.21768,-0.60427 0.50606,-0.1554 1.50237,-0.27625 2.05587,-0.27624 3.02053,-0.63882 0,-0.37983 0,-0.48342 0,-1.12224 -0.47443,-1.58842 -0.64838,-0.62154 -1.92934,-0.62154 -1.18607,0 -1.75539,0.44889 -0.56931,0.4489 -0.83817,1.62294 l -1.660487,-0.25898 q 0.237207,-1.15678 0.743257,-1.86464 0.52188,-0.70788 1.48655,-1.08772 0.98049,-0.39709 2.27727,-0.39709 1.28096,0 2.07167,0.32802 0.79072,0.32805 1.17026,0.82875 0.37955,0.5007 0.52187,1.26037 0.0948,0.46615 0.0948,1.69198 l 0,2.46894 q 0,2.57253 0.0948,3.26313 0.11071,0.67335 0.4428,1.2949 l -1.7712,0 q -0.26884,-0.56974 -0.33209,-1.3467 z m -0.14233,-4.10912 q -0.91723,0.39709 -2.7675,0.69061 -1.04374,0.15539 -1.47073,0.36258 -0.42699,0.20718 -0.66421,0.60427 -0.23721,0.3971 -0.23721,0.88053 0,0.74241 0.50606,1.24311 0.52187,0.48341 1.50236,0.48341 0.98049,0 1.73957,-0.46616 0.75909,-0.48342 1.12281,-1.27762 0.26885,-0.63882 0.26885,-1.84738 l 0,-0.67335 z m 7.82881,3.79835 0.23722,1.64021 q -0.71165,0.15538 -1.28097,0.15538 -0.91723,0 -1.42328,-0.31077 -0.50606,-0.32803 -0.71164,-0.82873 -0.2056,-0.51796 -0.2056,-2.1927 l 0,-6.25002 -1.24932,0 0,-1.45029 1.24932,0 0,-2.69337 1.67632,-1.10498 0,3.79835 1.70795,0 0,1.45029 -1.70795,0 0,6.35361 q 0,0.79422 0.0791,1.01866 0.0948,0.22446 0.30046,0.36258 0.20559,0.13811 0.58514,0.13811 0.26884,0 0.74327,-0.0863 z m 8.06106,0.31077 q -0.94887,0.88055 -1.81866,1.24311 -0.86978,0.34531 -1.86608,0.34531 -1.62888,0 -2.51447,-0.86327 -0.88561,-0.88052 -0.88561,-2.24448 0,-0.81146 0.3321,-1.46755 0.33211,-0.65609 0.8698,-1.05319 0.53768,-0.39709 1.21769,-0.60427 0.50606,-0.1554 1.50236,-0.27625 2.05586,-0.27624 3.02052,-0.63882 0,-0.37983 0,-0.48342 0,-1.12224 -0.47442,-1.58842 -0.64838,-0.62154 -1.92934,-0.62154 -1.18607,0 -1.75539,0.44889 -0.56931,0.4489 -0.83816,1.62294 l -1.6605,-0.25898 q 0.23721,-1.15678 0.74328,-1.86464 0.52187,-0.70788 1.48653,-1.08772 0.9805,-0.39709 2.27726,-0.39709 1.28097,0 2.07167,0.32802 0.79072,0.32805 1.17027,0.82875 0.37955,0.5007 0.52186,1.26037 0.0948,0.46615 0.0948,1.69198 l 0,2.46894 q 0,2.57253 0.0948,3.26313 0.1107,0.67335 0.44279,1.2949 l -1.7712,0 q -0.26884,-0.56974 -0.3321,-1.3467 z m -0.14235,-4.10912 q -0.91723,0.39709 -2.76749,0.69061 -1.04374,0.15539 -1.47074,0.36258 -0.42698,0.20718 -0.6642,0.60427 -0.2372,0.3971 -0.2372,0.88053 0,0.74241 0.50606,1.24311 0.52186,0.48341 1.50235,0.48341 0.98048,0 1.73957,-0.46616 0.75909,-0.48342 1.12281,-1.27762 0.26884,-0.63882 0.26884,-1.84738 l 0,-0.67335 z"
       id="path69"
       inkscape:connector-curvature="0"
       style="fill:#ffffff;fill-rule:nonzero" />
    <path
       d="m 32.934399,574.61704 0,0 c 0,-7.60522 5.647105,-13.77047 12.613182,-13.77047 l 119.498269,0 c 3.34521,0 6.55343,1.45085 8.91885,4.03328 2.36544,2.58247 3.69433,6.08503 3.69433,9.73719 l 0,55.08009 c 0,7.60522 -5.64713,13.77044 -12.61318,13.77044 l -119.498269,0 c -6.966077,0 -12.613182,-6.16522 -12.613182,-13.77044 z"
       id="path71"
       inkscape:connector-curvature="0"
       style="fill:#666666;fill-rule:nonzero" />
    <path
       d="m 32.934399,574.61704 0,0 c 0,-7.60522 5.647105,-13.77047 12.613182,-13.77047 l 119.498269,0 c 3.34521,0 6.55343,1.45085 8.91885,4.03328 2.36544,2.58247 3.69433,6.08503 3.69433,9.73719 l 0,55.08009 c 0,7.60522 -5.64713,13.77044 -12.61318,13.77044 l -119.498269,0 c -6.966077,0 -12.613182,-6.16522 -12.613182,-13.77044 z"
       id="path73"
       inkscape:connector-curvature="0"
       style="fill-rule:nonzero;stroke:#000000;stroke-width:1.0575279;stroke-linecap:butt;stroke-linejoin:round" />
    <path
       d="m 84.126437,580.65974 1.707939,-0.15539 q 0.126512,1.12226 0.569313,1.84739 0.442802,0.72515 1.375846,1.17404 0.948855,0.44888 2.119118,0.44888 1.043737,0 1.834451,-0.34529 0.806532,-0.3453 1.201885,-0.93232 0.395376,-0.58703 0.395376,-1.27763 0,-0.70789 -0.37955,-1.22585 -0.379542,-0.53521 -1.249334,-0.89778 -0.553502,-0.24172 -2.451219,-0.72515 -1.897718,-0.50069 -2.656794,-0.94958 -0.980493,-0.56976 -1.470743,-1.39851 -0.474423,-0.82872 -0.474423,-1.86465 0,-1.13949 0.585124,-2.12362 0.60095,-1.00137 1.723758,-1.50208 1.138633,-0.51796 2.53029,-0.51796 1.533994,0 2.704257,0.53524 1.170256,0.53522 1.78701,1.58839 0.63258,1.03593 0.680021,2.36535 l -1.739576,0.13813 q -0.142338,-1.41576 -0.964674,-2.1409 -0.806533,-0.7424 -2.38796,-0.7424 -1.644687,0 -2.403779,0.67334 -0.759084,0.65608 -0.759084,1.58839 0,0.81149 0.537683,1.32944 0.521873,0.51795 2.735873,1.07045 2.229818,0.5525 3.052169,0.96686 1.201886,0.60426 1.771207,1.5366 0.585116,0.91506 0.585116,2.12364 0,1.20857 -0.632572,2.27901 -0.632573,1.05318 -1.81864,1.6402 -1.170256,0.58701 -2.64099,0.58701 -1.866088,0 -3.131233,-0.58701 -1.265145,-0.60428 -1.992607,-1.79559 -0.711636,-1.19131 -0.743258,-2.71065 z m 12.357111,-0.6043 q 0,-3.0214 1.549806,-4.48896 1.280956,-1.20858 3.131236,-1.20858 2.05586,0 3.35264,1.48483 1.31258,1.46755 1.31258,4.05733 0,2.10636 -0.58512,3.31494 -0.56932,1.1913 -1.67632,1.86466 -1.0912,0.65606 -2.40378,0.65606 -2.087484,0 -3.384267,-1.46754 -1.296775,-1.46754 -1.296775,-4.21274 z m 1.739584,0 q 0,2.08911 0.838147,3.12503 0.83817,1.03592 2.103311,1.03592 1.26515,0 2.08749,-1.03592 0.83816,-1.05319 0.83816,-3.19409 0,-2.02002 -0.83816,-3.05594 -0.83817,-1.03591 -2.08749,-1.03591 -1.265141,0 -2.103311,1.03591 -0.838147,1.03592 -0.838147,3.125 z m 9.362788,5.43858 0,-15.0208 1.69213,0 0,15.0208 -1.69213,0 z m 10.74217,-1.34669 q -0.94885,0.88052 -1.81864,1.2431 -0.86979,0.34529 -1.8661,0.34529 -1.62886,0 -2.51446,-0.86325 -0.88561,-0.88055 -0.88561,-2.24449 0,-0.81148 0.3321,-1.46755 0.3321,-0.65608 0.86979,-1.05319 0.53768,-0.39709 1.2177,-0.60427 0.50606,-0.15538 1.50236,-0.27625 2.05586,-0.27624 3.02053,-0.6388 0,-0.37985 0,-0.48345 0,-1.12223 -0.47444,-1.5884 -0.64837,-0.62154 -1.92934,-0.62154 -1.18606,0 -1.75538,0.44889 -0.56932,0.44891 -0.83817,1.62294 l -1.66049,-0.25898 q 0.23721,-1.15677 0.74327,-1.86465 0.52188,-0.70787 1.48654,-1.08771 0.98049,-0.39712 2.27726,-0.39712 1.28097,0 2.07168,0.32806 0.79072,0.32804 1.17027,0.82873 0.37953,0.50068 0.52186,1.26037 0.0948,0.46616 0.0948,1.692 l 0,2.46893 q 0,2.57251 0.0948,3.26313 0.1107,0.67335 0.4428,1.2949 l -1.7712,0 q -0.26883,-0.56976 -0.3321,-1.34669 z m -0.14233,-4.10914 q -0.91723,0.3971 -2.7675,0.69062 -1.04375,0.15538 -1.47073,0.36256 -0.42699,0.20718 -0.66421,0.60429 -0.23721,0.39709 -0.23721,0.88052 0,0.74241 0.50606,1.2431 0.52187,0.48343 1.50235,0.48343 0.98049,0 1.73958,-0.46617 0.75908,-0.48342 1.12282,-1.27762 0.26884,-0.63882 0.26884,-1.84739 l 0,-0.67334 z m 4.11244,5.45583 0,-10.89439 1.51819,0 0,1.65746 q 0.58512,-1.15676 1.07535,-1.51934 0.49026,-0.37985 1.09118,-0.37985 0.85398,0 1.73959,0.6043 l -0.58513,1.70926 q -0.61677,-0.39711 -1.24933,-0.39711 -0.5535,0 -0.99631,0.36258 -0.42698,0.36258 -0.61675,1.00139 -0.28466,0.98412 -0.28466,2.15816 l 0,5.69754 -1.69213,0 z"
       id="path75"
       inkscape:connector-curvature="0"
       style="fill:#ffffff;fill-rule:nonzero" />
    <path
       d="m 66.507238,603.91606 0,-1.77832 5.835476,0 0,5.57669 q -1.344209,1.17402 -2.783314,1.76105 -1.423301,0.58702 -2.92565,0.58702 -2.02423,0 -3.684743,-0.94961 -1.644687,-0.94958 -2.49866,-2.74516 -0.838147,-1.79558 -0.838147,-4.00555 0,-2.19269 0.838147,-4.09187 0.838162,-1.89918 2.419597,-2.81424 1.581435,-0.93232 3.637294,-0.93232 1.486546,0 2.688431,0.53522 1.217697,0.51795 1.897726,1.46756 0.680005,0.93231 1.043736,2.45167 l -1.644687,0.48341 q -0.31629,-1.1395 -0.774902,-1.79558 -0.458621,-0.65607 -1.312579,-1.05319 -0.853981,-0.39709 -1.897725,-0.39709 -1.249341,0 -2.166567,0.41437 -0.901414,0.41436 -1.470727,1.10498 -0.553509,0.67334 -0.853973,1.4848 -0.537691,1.38123 -0.537691,3.02142 0,2.00277 0.632573,3.36674 0.648383,1.34668 1.850276,2.00277 1.217705,0.65609 2.577731,0.65609 1.186067,0 2.308897,-0.5007 1.122815,-0.50069 1.707947,-1.05318 l 0,-2.79698 -4.048466,0 z m 14.861204,2.38261 1.739577,0.24172 q -0.411172,1.65746 -1.533987,2.58978 -1.106996,0.91506 -2.846573,0.91506 -2.182378,0 -3.463342,-1.46755 -1.280956,-1.46755 -1.280956,-4.1264 0,-2.74517 1.280956,-4.26452 1.296768,-1.51934 3.36846,-1.51934 2.008404,0 3.273549,1.48481 1.265145,1.48482 1.265145,4.19546 0,0.15539 -0.0158,0.48343 l -7.43273,0 q 0.09484,1.79559 0.933036,2.74518 0.83817,0.94958 2.087489,0.94958 0.917241,0 1.565632,-0.51795 0.664195,-0.53521 1.059548,-1.70926 z m -5.550815,-2.98691 5.566642,0 q -0.110716,-1.36395 -0.63258,-2.05456 -0.806533,-1.07044 -2.103308,-1.07044 -1.154438,0 -1.960977,0.86327 -0.790714,0.84599 -0.869777,2.26173 z m 9.220462,6.49176 0,-10.89439 1.518183,0 0,1.55388 q 1.106989,-1.79559 3.178674,-1.79559 0.901406,0 1.660498,0.36257 0.759084,0.34529 1.122822,0.93232 0.379542,0.56976 0.537684,1.34668 0.09484,0.51797 0.09484,1.79558 l 0,6.69895 -1.692136,0 0,-6.62988 q 0,-1.12223 -0.205582,-1.67471 -0.189771,-0.56977 -0.695824,-0.8978 -0.506061,-0.32804 -1.186082,-0.32804 -1.075374,0 -1.866088,0.74241 -0.774895,0.7424 -0.774895,2.84875 l 0,5.93927 -1.692136,0 z m 17.333221,-3.50485 1.73957,0.24172 q -0.41117,1.65746 -1.534,2.58978 -1.10699,0.91506 -2.846562,0.91506 -2.182378,0 -3.463335,-1.46755 -1.280956,-1.46755 -1.280956,-4.1264 0,-2.74517 1.280956,-4.26452 1.296775,-1.51934 3.368445,-1.51934 2.008422,0 3.273562,1.48481 1.26515,1.48482 1.26515,4.19546 0,0.15539 -0.0158,0.48343 l -7.432729,0 q 0.09484,1.79559 0.933044,2.74518 0.838155,0.94958 2.087496,0.94958 0.917229,0 1.565609,-0.51795 0.6642,-0.53521 1.05956,-1.70926 z m -5.550832,-2.98691 5.566632,0 q -0.11068,-1.36395 -0.63257,-2.05456 -0.80653,-1.07044 -2.103293,-1.07044 -1.154452,0 -1.960977,0.86327 -0.790721,0.84599 -0.869792,2.26173 z m 9.204662,6.49176 0,-10.89439 1.51817,0 0,1.65747 q 0.58513,-1.15679 1.07538,-1.51935 0.49025,-0.37983 1.09119,-0.37983 0.85396,0 1.73957,0.60426 l -0.58513,1.70929 q -0.61676,-0.39711 -1.24933,-0.39711 -0.55351,0 -0.9963,0.36257 -0.42699,0.36256 -0.61677,1.00138 -0.28465,0.98413 -0.28465,2.15817 l 0,5.69754 -1.69213,0 z m 12.81925,-1.3467 q -0.94885,0.88054 -1.81864,1.2431 -0.86979,0.34531 -1.86609,0.34531 -1.62887,0 -2.51447,-0.86326 -0.88561,-0.88053 -0.88561,-2.2445 0,-0.81145 0.3321,-1.46753 0.3321,-0.65608 0.86979,-1.05319 0.53768,-0.39709 1.21771,-0.60427 0.50605,-0.15541 1.50235,-0.27625 2.05586,-0.27626 3.02054,-0.63882 0,-0.37984 0,-0.48343 0,-1.12225 -0.47443,-1.58841 -0.64839,-0.62155 -1.92934,-0.62155 -1.18608,0 -1.7554,0.4489 -0.56932,0.44889 -0.83815,1.62294 l -1.66051,-0.25897 q 0.23721,-1.15679 0.74328,-1.86466 0.52186,-0.70789 1.48654,-1.08771 0.98049,-0.3971 2.27726,-0.3971 1.28096,0 2.07167,0.32803 0.79072,0.32804 1.17026,0.82874 0.37955,0.5007 0.52188,1.26035 0.0948,0.46617 0.0948,1.69201 l 0,2.46892 q 0,2.57254 0.0948,3.26316 0.1107,0.67334 0.4428,1.29489 l -1.7712,0 q -0.26885,-0.56975 -0.33211,-1.3467 z m -0.14232,-4.10913 q -0.91723,0.3971 -2.76752,0.6906 -1.04373,0.1554 -1.47072,0.36259 -0.42699,0.20718 -0.66419,0.60427 -0.23723,0.39711 -0.23723,0.88053 0,0.74242 0.50606,1.24311 0.52187,0.48343 1.50237,0.48343 0.98048,0 1.73957,-0.46616 0.75909,-0.48344 1.12281,-1.27766 0.26885,-0.63879 0.26885,-1.84737 l 0,-0.67334 z m 7.8288,3.79837 0.23722,1.6402 q -0.71164,0.15538 -1.28096,0.15538 -0.91723,0 -1.42329,-0.31078 -0.50605,-0.32803 -0.71165,-0.82874 -0.20557,-0.51795 -0.20557,-2.19268 l 0,-6.25002 -1.24934,0 0,-1.45029 1.24934,0 0,-2.69338 1.67631,-1.10498 0,3.79836 1.70794,0 0,1.45029 -1.70794,0 0,6.35362 q 0,0.7942 0.079,1.01865 0.0948,0.22444 0.30047,0.36257 0.20558,0.13812 0.58511,0.13812 0.26887,0 0.7433,-0.0863 z m 1.56137,-11.25697 0,-2.10636 1.69214,0 0,2.10636 -1.69214,0 z m 0,12.91443 0,-10.89439 1.69214,0 0,10.89439 -1.69214,0 z m 3.54664,-5.43856 q 0,-3.02144 1.54981,-4.48897 1.28097,-1.20857 3.13123,-1.20857 2.05587,0 3.35265,1.48481 1.31258,1.46755 1.31258,4.05733 0,2.10637 -0.58514,3.31493 -0.56931,1.19132 -1.67631,1.86466 -1.09117,0.65608 -2.40378,0.65608 -2.08748,0 -3.38426,-1.46755 -1.29678,-1.46755 -1.29678,-4.21272 z m 1.73958,0 q 0,2.08909 0.83817,3.12501 0.83816,1.03591 2.10329,1.03591 1.26515,0 2.08749,-1.03591 0.83817,-1.05317 0.83817,-3.19407 0,-2.02004 -0.83817,-3.05597 -0.83814,-1.03591 -2.08749,-1.03591 -1.26513,0 -2.10329,1.03591 -0.83817,1.03593 -0.83817,3.12503 z m 9.39443,5.43856 0,-10.89439 1.51817,0 0,1.55388 q 1.10701,-1.79559 3.17869,-1.79559 0.90141,0 1.6605,0.36257 0.75907,0.34529 1.12282,0.93232 0.37955,0.56976 0.53768,1.34668 0.0948,0.51797 0.0948,1.79558 l 0,6.69895 -1.69214,0 0,-6.62988 q 0,-1.12223 -0.20558,-1.67471 -0.18978,-0.56977 -0.69584,-0.8978 -0.50605,-0.32804 -1.18607,-0.32804 -1.07537,0 -1.86609,0.74241 -0.77489,0.7424 -0.77489,2.84875 l 0,5.93927 -1.69215,0 z"
       id="path77"
       inkscape:connector-curvature="0"
       style="fill:#ffffff;fill-rule:nonzero" />
    <path
       d="m 86.840694,634.11302 0,-15.02078 4.74429,0 q 1.597231,0 2.451212,0.20718 1.170256,0.29351 2.008426,1.07045 1.091177,1.01865 1.628868,2.58979 0.537683,1.55386 0.537683,3.55664 0,1.70926 -0.363716,3.0387 -0.363738,1.31216 -0.933051,2.19268 -0.569321,0.86327 -1.249327,1.36396 -0.68002,0.48344 -1.644694,0.7424 -0.964681,0.25898 -2.214,0.25898 l -4.965691,0 z m 1.818632,-1.77832 2.941469,0 q 1.360027,0 2.134937,-0.27625 0.774895,-0.27624 1.233508,-0.77692 0.648384,-0.70789 1.012122,-1.89918 0.363723,-1.19132 0.363723,-2.90058 0,-2.34807 -0.711635,-3.60843 -0.711651,-1.27764 -1.723765,-1.70926 -0.72747,-0.31078 -2.356331,-0.31078 l -2.894028,0 0,11.4814 z m 18.111644,0.43164 q -0.94886,0.88052 -1.81865,1.24309 -0.86978,0.34532 -1.86608,0.34532 -1.62888,0 -2.51447,-0.86327 -0.885607,-0.88053 -0.885607,-2.24449 0,-0.81147 0.332097,-1.46754 0.3321,-0.65609 0.8698,-1.05318 0.53767,-0.39712 1.21768,-0.6043 0.50606,-0.15537 1.50237,-0.27624 2.05587,-0.27624 3.02053,-0.63881 0,-0.37983 0,-0.48342 0,-1.12226 -0.47443,-1.58842 -0.64838,-0.62156 -1.92934,-0.62156 -1.18607,0 -1.75539,0.44891 -0.56931,0.4489 -0.83817,1.62294 l -1.660487,-0.25899 q 0.237207,-1.15676 0.743257,-1.86465 0.52188,-0.70786 1.48655,-1.0877 0.98049,-0.39711 2.27727,-0.39711 1.28096,0 2.07167,0.32805 0.79072,0.32803 1.17026,0.82873 0.37955,0.50069 0.52187,1.26036 0.0948,0.46617 0.0948,1.692 l 0,2.46894 q 0,2.57251 0.0948,3.26313 0.11071,0.67335 0.4428,1.29489 l -1.7712,0 q -0.26884,-0.56975 -0.33209,-1.34668 z m -0.14233,-4.10914 q -0.91723,0.3971 -2.7675,0.69062 -1.04374,0.15538 -1.47073,0.36256 -0.42699,0.20718 -0.66421,0.60428 -0.23721,0.3971 -0.23721,0.88054 0,0.7424 0.50606,1.24309 0.52187,0.48343 1.50236,0.48343 0.98049,0 1.73957,-0.46615 0.75909,-0.48344 1.12281,-1.27763 0.26885,-0.63883 0.26885,-1.8474 l 0,-0.67334 z m 7.82881,3.79837 0.23722,1.64017 q -0.71165,0.1554 -1.28097,0.1554 -0.91723,0 -1.42328,-0.31077 -0.50606,-0.32804 -0.71164,-0.82873 -0.2056,-0.51796 -0.2056,-2.19269 l 0,-6.25003 -1.24932,0 0,-1.45029 1.24932,0 0,-2.69339 1.67632,-1.10496 0,3.79835 1.70795,0 0,1.45029 -1.70795,0 0,6.35363 q 0,0.7942 0.0791,1.01863 0.0948,0.22445 0.30046,0.36259 0.20559,0.13811 0.58514,0.13811 0.26884,0 0.74327,-0.0864 z m 8.06106,0.31077 q -0.94887,0.88052 -1.81866,1.24309 -0.86978,0.34532 -1.86608,0.34532 -1.62888,0 -2.51447,-0.86327 -0.88561,-0.88053 -0.88561,-2.24449 0,-0.81147 0.3321,-1.46754 0.33211,-0.65609 0.8698,-1.05318 0.53768,-0.39712 1.21769,-0.6043 0.50606,-0.15537 1.50236,-0.27624 2.05586,-0.27624 3.02052,-0.63881 0,-0.37983 0,-0.48342 0,-1.12226 -0.47442,-1.58842 -0.64838,-0.62156 -1.92934,-0.62156 -1.18607,0 -1.75539,0.44891 -0.56931,0.4489 -0.83816,1.62294 l -1.6605,-0.25899 q 0.23721,-1.15676 0.74328,-1.86465 0.52187,-0.70786 1.48653,-1.0877 0.9805,-0.39711 2.27726,-0.39711 1.28097,0 2.07167,0.32805 0.79072,0.32803 1.17027,0.82873 0.37955,0.50069 0.52186,1.26036 0.0948,0.46617 0.0948,1.692 l 0,2.46894 q 0,2.57251 0.0948,3.26313 0.1107,0.67335 0.44279,1.29489 l -1.7712,0 q -0.26884,-0.56975 -0.3321,-1.34668 z m -0.14235,-4.10914 q -0.91723,0.3971 -2.76749,0.69062 -1.04374,0.15538 -1.47074,0.36256 -0.42698,0.20718 -0.6642,0.60428 -0.2372,0.3971 -0.2372,0.88054 0,0.7424 0.50606,1.24309 0.52186,0.48343 1.50235,0.48343 0.98048,0 1.73957,-0.46615 0.75909,-0.48344 1.12281,-1.27763 0.26884,-0.63883 0.26884,-1.8474 l 0,-0.67334 z"
       id="path79"
       inkscape:connector-curvature="0"
       style="fill:#ffffff;fill-rule:nonzero" />
    <path
       d="m 190.37557,412.32139 30.36347,0 0,0 30.36348,71.83222 -30.36348,71.83223 0,0 -30.36347,0 z"
       id="path81"
       inkscape:connector-curvature="0"
       style="fill:#980000;fill-rule:nonzero" />
    <path
       d="m 190.37557,412.32139 30.36347,0 0,0 30.36348,71.83222 -30.36348,71.83223 0,0 -30.36347,0 z"
       id="path83"
       inkscape:connector-curvature="0"
       style="fill-rule:nonzero;stroke:#000000;stroke-width:1.0575279;stroke-linecap:butt;stroke-linejoin:round" />
  </g>
  <path
     id="path5"
     d="m -19.368688,-257.65386 1284.295288,0 0,955.7047 -1284.295288,0 0,-955.7047 z"
     inkscape:connector-curvature="0"
     style="clip-rule:nonzero" />
</svg>
